<svg width="25" height="25" viewBox="0 0 25 25" fill="none" xmlns="http://www.w3.org/2000/svg">
    <path
        d="M18.7461 13.0322H13.7461V18.0322C13.7461 18.5822 13.2961 19.0322 12.7461 19.0322C12.1961 19.0322 11.7461 18.5822 11.7461 18.0322V13.0322H6.74609C6.19609 13.0322 5.74609 12.5822 5.74609 12.0322C5.74609 11.4822 6.19609 11.0322 6.74609 11.0322H11.7461V6.03223C11.7461 5.48223 12.1961 5.03223 12.7461 5.03223C13.2961 5.03223 13.7461 5.48223 13.7461 6.03223V11.0322H18.7461C19.2961 11.0322 19.7461 11.4822 19.7461 12.0322C19.7461 12.5822 19.2961 13.0322 18.7461 13.0322Z"
        fill="#8B8B8B" fill-opacity="0.6" />
</svg>