<svg width="179" height="55" viewBox="0 0 179 55" fill="none" xmlns="http://www.w3.org/2000/svg">
    <g opacity="0.5" clip-path="url(#clip0_3387_17345)">
        <path
            d="M61.8344 27.1557C61.7829 25.8764 61.9836 24.5994 62.4251 23.3985C62.8666 22.1975 63.5401 21.0964 64.4067 20.1587C65.2733 19.221 66.3159 18.4652 67.4744 17.935C68.6328 17.4047 69.8841 17.1105 71.1562 17.0693H71.5514C76.4677 17.0693 79.3693 19.9789 80.2273 23.383L77.1715 24.4111C76.8969 23.1425 76.1782 22.0156 75.1465 21.2358C74.1148 20.4559 72.8389 20.0753 71.5514 20.1631C68.3703 20.1631 65.1795 22.5005 65.1795 27.2139C65.1795 31.9274 68.2931 34.1774 71.59 34.1774C72.8838 34.213 74.1522 33.8109 75.192 33.0355C76.2319 32.2601 76.9832 31.1562 77.3257 29.9004L80.3237 30.8703C79.8062 32.7859 78.6551 34.4668 77.0604 35.6358C75.4656 36.8047 73.5224 37.3919 71.5514 37.3003C69.0193 37.3471 66.5723 36.3803 64.7484 34.6126C62.9245 32.8449 61.8729 30.4209 61.8248 27.8734C61.8152 27.6407 61.8248 27.3982 61.8344 27.1557Z"
            fill="white" />
        <path
            d="M86.2717 36.8543H83.1099V17.0112H86.2717V24.77C86.7307 24.2223 87.308 23.7872 87.9596 23.4981C88.6112 23.209 89.3197 23.0735 90.0313 23.1019C93.2992 23.1019 94.8512 25.4586 94.8512 28.3972V36.8543H91.805V28.9597C91.8963 28.2868 91.7211 27.6046 91.3172 27.0604C90.9133 26.5161 90.313 26.1534 89.6457 26.0502C89.4566 26.0307 89.266 26.0307 89.0769 26.0502C88.3457 26.0502 87.6445 26.3424 87.1274 26.8626C86.6104 27.3828 86.3199 28.0883 86.3199 28.824C86.3151 28.9047 86.3151 28.9857 86.3199 29.0664L86.2717 36.8543Z"
            fill="white" />
        <path
            d="M101.946 29.2117L105.339 28.6782C106.111 28.5813 106.303 28.1836 106.303 27.7084C106.303 26.5834 105.552 25.6814 103.797 25.6814C103.134 25.6275 102.477 25.8386 101.969 26.2689C101.46 26.6992 101.14 27.314 101.079 27.98V28.1254L98.1867 27.4756C98.4277 25.1674 100.51 23.1113 103.768 23.1113C107.855 23.1113 109.407 25.439 109.407 28.1545V34.7786C109.404 35.4963 109.459 36.2132 109.571 36.9219H106.679C106.575 36.3594 106.533 35.7869 106.554 35.215C106.115 35.8947 105.507 36.4467 104.79 36.816C104.072 37.1852 103.271 37.3589 102.467 37.3196C101.368 37.4109 100.278 37.0598 99.4354 36.3435C98.5932 35.6271 98.0679 34.6039 97.9746 33.4984C97.9746 33.4305 97.9746 33.3626 97.9746 33.3044C97.9264 30.8507 99.6712 29.5317 101.946 29.2117ZM106.323 31.355V30.744L102.862 31.2677C102.392 31.2827 101.946 31.4798 101.618 31.8178C101.289 32.1558 101.103 32.6085 101.098 33.0814C101.102 33.3157 101.152 33.5469 101.245 33.7616C101.339 33.9762 101.474 34.17 101.642 34.3316C101.811 34.4932 102.01 34.6194 102.228 34.7028C102.445 34.7862 102.677 34.8251 102.91 34.8174H103.055C103.449 34.8589 103.848 34.8215 104.228 34.7073C104.609 34.5931 104.962 34.4044 105.27 34.152C105.577 33.8995 105.832 33.5884 106.019 33.2366C106.206 32.8847 106.323 32.4991 106.361 32.1018C106.375 31.8518 106.359 31.6011 106.313 31.355H106.323Z"
            fill="white" />
        <path
            d="M114.786 16.7396C115.058 16.7358 115.328 16.786 115.58 16.8873C115.833 16.9887 116.063 17.1392 116.257 17.3303C116.451 17.5213 116.606 17.7492 116.713 18.0006C116.82 18.2521 116.876 18.5223 116.878 18.7957C116.878 19.2049 116.758 19.605 116.533 19.9457C116.307 20.2863 115.987 20.5523 115.611 20.7102C115.236 20.8681 114.823 20.9109 114.423 20.8332C114.024 20.7554 113.656 20.5606 113.367 20.2732C113.077 19.9859 112.879 19.6188 112.796 19.2181C112.713 18.8175 112.75 18.4011 112.901 18.0214C113.053 17.6417 113.313 17.3156 113.648 17.084C113.984 16.8525 114.38 16.726 114.786 16.7202V16.7396ZM113.244 36.9124V23.5091H116.406V36.8542L113.244 36.9124Z"
            fill="white" />
        <path
            d="M123.607 36.8547H120.455V23.5096H123.53V25.2844C123.931 24.6029 124.506 24.0425 125.197 23.662C125.887 23.2814 126.666 23.0948 127.453 23.1217C130.692 23.1217 132.273 25.4784 132.273 28.417V36.8547H129.121V28.9602C129.121 27.3211 128.379 25.9924 126.393 25.9924C126.026 25.995 125.663 26.0702 125.324 26.2139C124.986 26.3576 124.679 26.5669 124.422 26.8299C124.164 27.0929 123.96 27.4044 123.822 27.7466C123.684 28.0888 123.614 28.455 123.616 28.8244C123.616 28.9311 123.616 29.0377 123.616 29.1444L123.607 36.8547Z"
            fill="white" />
        <path d="M136.09 36.8543V17.0112H139.252V36.8543H136.09Z" fill="white" />
        <path
            d="M144.892 16.7398C145.299 16.7379 145.697 16.8576 146.036 17.0839C146.375 17.3101 146.64 17.6327 146.797 18.0105C146.953 18.3884 146.995 18.8045 146.916 19.2062C146.837 19.6078 146.641 19.9768 146.353 20.2662C146.066 20.5557 145.699 20.7527 145.3 20.8321C144.9 20.9115 144.487 20.8697 144.111 20.7122C143.736 20.5546 143.415 20.2884 143.19 19.9472C142.965 19.606 142.846 19.2052 142.848 18.7958C142.853 18.2521 143.07 17.7321 143.452 17.3476C143.834 16.9631 144.351 16.7448 144.892 16.7398ZM143.34 36.9126V23.5093H146.473V36.8544L143.34 36.9126Z"
            fill="white" />
        <path
            d="M153.722 36.8545H150.56V23.5094H153.635V25.2843C154.037 24.6034 154.613 24.0436 155.303 23.6632C155.993 23.2827 156.772 23.0957 157.559 23.1215C160.798 23.1215 162.379 25.4782 162.379 28.4169V36.8545H159.217V28.96C159.308 28.287 159.133 27.6049 158.729 27.0606C158.325 26.5164 157.725 26.1536 157.057 26.0504C156.865 26.031 156.671 26.031 156.479 26.0504C155.743 26.0581 155.039 26.3578 154.521 26.8844C154.003 27.4111 153.712 28.1221 153.712 28.863C153.702 28.9759 153.702 29.0895 153.712 29.2024L153.722 36.8545Z"
            fill="white" />
        <path
            d="M173.166 29.144L178.728 36.9028H174.872L171.016 31.4038L169.387 33.1301V36.8543H166.254V17.0112H169.387V28.9015L174.477 23.5092H178.67L173.166 29.144Z"
            fill="white" />
        <path
            d="M24.403 11.6382L38.0724 19.5327V35.3994L24.4416 43.3424L10.7819 35.4673V19.6103L24.403 11.6382ZM24.403 0L19.3903 2.90954L5.74027 10.8817L0.727539 13.7912V41.3058L5.74027 44.2153L19.4096 52.1099L24.4223 55.0194L29.435 52.1099L43.0562 44.1571L48.0689 41.2476V13.6942L43.0562 10.7847L29.3965 2.90954L24.3838 0H24.403Z"
            fill="white" />
    </g>
    <defs>
        <clipPath id="clip0_3387_17345">
            <rect width="178" height="55" fill="white" transform="translate(0.727539)" />
        </clipPath>
    </defs>
</svg>