<svg width="175" height="44" viewBox="0 0 175 44" fill="none" xmlns="http://www.w3.org/2000/svg">
    <g opacity="0.5" clip-path="url(#clip0_3664_18636)">
        <path
            d="M72.3302 29.0366C69.562 32.3593 65.6075 34.5093 61.2575 34.5093C53.7438 34.5093 47.812 29.2321 47.812 22.3911C47.812 19.0684 49.1961 15.9411 51.7666 13.5957C54.1393 11.2502 57.5006 10.0775 60.862 10.273C65.212 10.273 69.3643 12.2275 71.9347 15.7457L66.9916 19.2639C65.6075 17.1139 63.4325 15.7457 60.862 15.7457C57.1052 15.7457 53.9416 18.873 53.9416 22.5866C54.1393 26.4957 57.3029 29.4275 61.0597 29.4275C63.6302 29.4275 66.0029 28.2548 67.387 26.1048L72.3302 29.0366Z"
            fill="white" />
        <path d="M81.2282 0.5H75.0986V33.9227H81.2282V0.5Z" fill="white" />
        <path
            d="M97.6398 29.2322C101.594 29.2322 104.956 26.1049 105.153 22.1958C104.956 18.2867 101.594 15.1595 97.6398 15.1595C93.6852 15.1595 90.3239 18.2867 90.1262 22.1958C90.3239 26.1049 93.4875 29.2322 97.6398 29.2322ZM97.6398 10.0777C101.001 9.8822 104.363 11.0549 106.933 13.4004C109.503 15.7458 110.888 18.8731 111.085 22.1958C110.888 25.5186 109.503 28.8413 106.933 30.9913C104.363 33.3367 101.001 34.5095 97.6398 34.314C90.1262 34.314 84.1943 29.0367 84.1943 22.1958C84.1943 15.3549 90.1262 10.0777 97.6398 10.0777Z"
            fill="white" />
        <path d="M109.899 10.4688H117.215L123.147 22.9778L129.474 10.4688H136.197L123.147 35.2915L109.899 10.4688Z"
            fill="white" />
        <path
            d="M153.794 18.8731C152.806 16.5277 150.631 15.1595 148.06 15.1595C145.49 15.1595 143.117 16.5277 141.931 18.8731H153.794ZM157.749 31.1867C155.178 33.3367 152.015 34.314 148.653 34.314C141.14 34.314 135.208 29.0367 135.208 22.1958C135.208 18.8731 136.592 15.7458 138.965 13.4004C141.338 11.0549 144.699 9.8822 148.06 10.0777C151.422 9.8822 154.585 11.2504 156.958 13.5958C159.331 15.9413 160.517 19.0686 160.319 22.3913V23.9549H141.338C142.326 27.0822 145.292 29.2322 148.653 29.2322C150.631 29.2322 152.608 28.4504 154.19 26.8867L157.749 31.1867ZM163.285 20.8277C163.285 15.1595 167.635 10.664 174.556 10.664V16.1367C173.172 16.1367 171.59 16.7231 170.601 17.7004C169.613 18.6777 169.217 20.2413 169.415 21.6095V33.9231H163.285V20.8277Z"
            fill="white" />
        <path
            d="M19.7349 11.4459C19.7349 7.53682 17.3622 4.21409 13.8031 2.65045C10.244 1.08681 6.09173 1.86863 3.32355 4.605C0.555364 7.34136 -0.235545 11.4459 1.14855 14.9641C2.53264 18.4823 6.09173 20.8277 10.0463 20.8277H19.7349V11.4459ZM22.5031 11.4459C22.5031 7.53682 24.8758 4.21409 28.4349 2.65045C31.994 1.08681 36.1463 1.86863 38.9145 4.605C41.6826 7.34136 42.4735 11.4459 41.0895 14.9641C39.7054 18.4823 36.1463 20.8277 32.1917 20.8277H22.5031V11.4459ZM22.5031 32.9459C22.5031 36.855 24.8758 40.1777 28.4349 41.7414C31.994 43.305 36.1463 42.5232 38.9145 39.7868C41.6826 37.0505 42.4735 32.9459 41.0895 29.4277C39.7054 25.9095 36.1463 23.5641 32.1917 23.5641H22.5031V32.9459ZM10.0463 39.7868C13.8031 39.7868 16.9667 36.855 16.9667 32.9459V26.105H10.0463C6.28946 26.105 3.12582 29.0368 3.12582 32.9459C3.12582 36.855 6.28946 39.7868 10.0463 39.7868ZM19.7349 32.9459C19.7349 36.855 17.3622 40.1777 13.8031 41.7414C10.244 43.305 6.09173 42.5232 3.32355 39.7868C0.555364 37.0505 -0.235545 32.9459 1.14855 29.4277C2.53264 25.9095 6.09173 23.5641 10.0463 23.5641H19.7349V32.9459Z"
            fill="white" />
    </g>
    <defs>
        <clipPath id="clip0_3664_18636">
            <rect width="174" height="43" fill="white" transform="translate(0.555176 0.5)" />
        </clipPath>
    </defs>
</svg>