<svg width="126" height="41" viewBox="0 0 126 41" fill="none" xmlns="http://www.w3.org/2000/svg">
    <g opacity="0.5" clip-path="url(#clip0_3664_18906)">
        <path
            d="M12.9908 6.43945C18.7609 6.43945 21.6764 9.83339 21.6764 9.83339L20.0364 12.2576C20.0364 12.2576 17.4247 9.40915 13.1122 9.40915C7.94947 9.40915 3.87998 13.2879 3.87998 18.8637C3.87998 24.3788 7.94947 28.3182 13.173 28.3182C17.9713 28.3182 20.7653 24.9849 20.7653 24.9849L22.223 27.4698C22.223 27.4698 19.0039 31.1667 12.9908 31.1667C6.00583 31.2273 0.600098 26.197 0.600098 18.8637C0.600098 11.591 6.06657 6.43945 12.9908 6.43945Z"
            fill="white" />
        <path
            d="M45.668 18.7426C45.668 25.5911 40.08 31.1668 33.2165 31.1668C26.3531 31.1668 20.7651 25.5911 20.7651 18.7426C20.7651 11.8941 26.3531 6.31836 33.2165 6.31836C40.08 6.31836 45.668 11.8941 45.668 18.7426Z"
            fill="white" />
        <path
            d="M56.1148 37.6516C60.731 37.6516 64.3753 35.4698 64.3753 30.1971V28.0153C64.3753 27.1062 64.4968 26.3183 64.4968 26.3183H64.3753C62.9783 28.9244 60.5488 30.4395 56.9044 30.4395C50.5269 30.4395 46.3359 25.4092 46.3359 18.3183C46.3359 11.2274 50.2232 6.37891 56.6008 6.37891C62.8568 6.37891 64.436 10.3183 64.436 10.3183H64.5575C64.5575 10.3183 64.4968 10.0153 64.4968 9.53042V6.92436H67.5944V29.9547C67.5944 37.4698 62.0672 40.3789 56.2363 40.3789C53.5031 40.3789 50.7699 39.6516 48.4618 38.5001L49.6766 35.8941C49.7373 36.0153 52.6527 37.6516 56.1148 37.6516ZM64.436 18.3789C64.436 11.4698 61.1562 9.3486 56.9652 9.3486C52.3491 9.3486 49.6766 12.6819 49.6766 18.3183C49.6766 23.9547 52.7135 27.591 57.4511 27.591C61.1561 27.6516 64.436 25.3486 64.436 18.3789Z"
            fill="white" />
        <path
            d="M80.6532 6.43945C87.213 6.43945 90.5536 11.4698 90.5536 17.3485C90.5536 17.894 90.4321 18.9849 90.4321 18.9849H72.2713C72.3928 25.0455 76.5837 28.3182 81.4428 28.3182C85.7553 28.3182 88.61 25.4698 88.61 25.4698L90.0677 27.894C90.0677 27.894 86.6056 31.1667 81.3213 31.1667C74.2757 31.1667 68.9307 26.0758 68.9307 18.8031C68.9914 11.1061 74.2149 6.43945 80.6532 6.43945ZM87.2737 16.3788C87.0915 11.4698 84.0546 9.16673 80.5317 9.16673C76.5837 9.16673 73.1216 11.6516 72.3928 16.3788H87.2737Z"
            fill="white" />
        <path
            d="M91.9507 7.04545H95.1091V10.5606C95.1091 11.5909 94.9876 12.4394 94.9876 12.4394H95.1091C95.9594 10.2576 98.9964 6.5 104.584 6.5C110.415 6.5 112.48 9.83333 112.48 15.6515V30.6818H109.261V16.4394C109.261 12.7424 108.715 9.4697 104.159 9.4697C100.09 9.4697 96.6276 12.2576 95.5343 16.1364C95.2306 17.1061 95.1698 18.197 95.1698 19.3485V30.6818H91.9507V7.04545Z"
            fill="white" />
        <path
            d="M116.003 9.95455H112.906V7.28788H116.064V0.5H119.223V7.28788H125.175V9.95455H119.223V21.7121C119.223 27.2273 122.745 27.9545 124.568 27.9545C125.236 27.9545 125.661 27.8333 125.661 27.8333V30.6818C125.661 30.6818 125.114 30.803 124.325 30.803C121.591 30.803 116.064 29.8939 116.064 22.0152V9.95455H116.003Z"
            fill="white" />
    </g>
    <defs>
        <clipPath id="clip0_3664_18906">
            <rect width="125" height="40" fill="white" transform="translate(0.600098 0.5)" />
        </clipPath>
    </defs>
</svg>