<svg width="166" height="47" viewBox="0 0 166 47" fill="none" xmlns="http://www.w3.org/2000/svg">
    <g opacity="0.5" clip-path="url(#clip0_3664_19000)">
        <path
            d="M28.2458 22.9218V33.2279H9.75358V11.3377H28.2458V21.6289H37.3988V7.05534C37.3983 6.19318 37.2544 5.33957 36.975 4.54336C36.6957 3.74715 36.2865 3.02397 35.7708 2.4152C35.2552 1.80643 34.6432 1.32401 33.9699 0.995545C33.2966 0.667084 32.5752 0.499028 31.847 0.500994H6.13657C5.40931 0.500993 4.68917 0.67065 4.01731 1.00027C3.34545 1.32989 2.73503 1.81301 2.22092 2.42204C1.70682 3.03106 1.29911 3.75405 1.02108 4.54969C0.743059 5.34533 0.600172 6.19803 0.600587 7.05908V37.4953C0.602258 39.235 1.18671 40.9029 2.22573 42.133C3.26475 43.3632 4.67348 44.0551 6.14288 44.0571H31.847C33.3153 44.0542 34.7225 43.3615 35.7599 42.1313C36.7972 40.901 37.3798 39.2337 37.3798 37.4953V22.9218H28.2458Z"
            fill="white" />
        <path d="M27.1574 12.6084H10.8335V31.9389H27.1574V12.6084Z" fill="white" />
        <path
            d="M49.484 19.0132C47.7829 16.9991 46.9275 14.4132 46.9307 11.3303C46.9338 8.24747 47.7765 5.63545 49.4809 3.63252C51.1852 1.6296 53.868 0.643083 57.425 0.643083C59.5283 0.640691 61.6259 0.898687 63.6838 1.41286L63.9363 1.46892V5.46729L63.5291 5.32529C62.5476 4.97403 61.7459 4.71246 61.1304 4.55551C60.515 4.39857 59.9216 4.27152 59.3693 4.18183C58.8245 4.10633 58.2765 4.06765 57.728 4.06599C55.5913 4.06599 54.1142 4.76851 53.2021 6.11376C52.2899 7.45901 51.7849 9.19288 51.7818 11.2743C51.7818 13.4603 52.3215 15.1643 53.3788 16.4796C54.4361 17.795 56.0048 18.4527 58.1668 18.4564C60.0704 18.4335 61.9499 17.9503 63.6901 17.0364L64.1225 16.8197V20.6462L63.9268 20.7359C63.2028 21.0763 62.4551 21.3414 61.6922 21.5281C60.9826 21.6901 60.2662 21.8073 59.546 21.8793C58.765 21.9775 57.9801 22.0261 57.1946 22.0251C53.808 22.0251 51.22 21.0385 49.4935 19.0132"
            fill="white" />
        <path
            d="M74.0115 21.9649C72.3991 22.0072 70.7996 21.6149 69.334 20.8177C68.0427 20.0971 66.9704 18.9227 66.2631 17.4546C65.5562 15.9549 65.1948 14.2616 65.2152 12.5444C65.1946 10.835 65.5515 9.14888 66.2504 7.65293C66.9611 6.18249 68.038 5.0079 69.334 4.28981C70.8056 3.5356 72.3922 3.14648 73.9958 3.14648C75.5993 3.14648 77.1859 3.5356 78.6575 4.28981C79.953 5.0073 81.0291 6.18214 81.7379 7.65293C82.4467 9.14909 82.8093 10.8403 82.7889 12.5556C82.8115 14.2736 82.4488 15.9679 81.7379 17.4658C81.0323 18.9328 79.9622 20.107 78.6732 20.8289C77.21 21.6265 75.6125 22.0188 74.0021 21.9761L74.0115 21.9649ZM74.0115 18.8671C75.5549 18.8671 76.6217 18.2393 77.354 16.9987C78.1121 15.6944 78.5072 14.1424 78.4839 12.5593C78.5069 10.9758 78.1107 9.42347 77.3508 8.12003C76.6154 6.87567 75.5454 6.25163 74.0115 6.25163C72.4776 6.25163 71.4014 6.87194 70.6628 8.12003C69.9061 9.4249 69.5123 10.9768 69.536 12.5593C69.5163 14.14 69.9122 15.6888 70.6691 16.9912C71.395 18.2393 72.4682 18.8596 74.0178 18.8596"
            fill="white" />
        <path
            d="M85.3638 21.5353V3.59863H92.1307C93.431 3.59863 94.6335 3.76305 95.3689 4.12178C96.0685 4.44351 96.6716 5.00408 97.1017 5.73235C97.5235 6.46239 97.744 7.32917 97.7329 8.21358C97.7232 9.32904 97.4038 10.4097 96.8239 11.289C96.2632 12.1553 95.5243 12.8372 94.6777 13.2695L100.302 21.5278H95.0628L90.9061 14.4951H89.4668V21.5353H85.3638ZM89.9529 11.3973C91.3574 11.3973 92.2727 11.0722 92.7177 10.5341C92.9435 10.291 93.1243 9.99519 93.2487 9.66526C93.3731 9.33532 93.4384 8.97846 93.4405 8.61715C93.4519 8.34995 93.4078 8.08352 93.312 7.84118C93.2163 7.59884 93.0718 7.38798 92.8913 7.22706C92.5757 6.9057 91.7077 6.67402 90.3664 6.68149H89.4605V11.3973H89.9529Z"
            fill="white" />
        <path
            d="M101.782 21.5356V3.58398H113.618V6.693H105.892V10.7474H112.684V13.8602H105.892V18.3518H113.65V21.5356H101.782Z"
            fill="white" />
        <path
            d="M153.695 21.5356V3.58398H165.534V6.693H157.792V10.7474H164.591V13.8602H157.792V18.3518H165.556V21.5356H153.695Z"
            fill="white" />
        <path
            d="M115.894 21.3002V17.0925L116.314 17.2719C117.377 17.7626 118.476 18.1378 119.596 18.393C120.255 18.5135 120.921 18.5772 121.588 18.5835C122.664 18.5835 123.431 18.322 123.892 17.881C124.082 17.7341 124.244 17.5401 124.365 17.3124C124.487 17.0847 124.565 16.8287 124.595 16.5618C124.625 16.2949 124.606 16.0235 124.539 15.7662C124.472 15.5089 124.359 15.2717 124.208 15.0709C123.974 14.7309 123.235 14.1592 122.055 13.4791L120.761 12.7317C118.905 11.6667 117.627 10.6839 116.92 9.71984C116.224 8.79456 115.845 7.59541 115.856 6.35672C115.856 4.76111 116.465 3.36728 117.624 2.26866C118.782 1.17004 120.464 0.602051 122.557 0.602051C124.326 0.627167 126.09 0.857457 127.821 1.28962L128.071 1.34567V5.33284L127.67 5.17963C125.71 4.43227 124.163 4.05859 123.059 4.05859C122.134 4.05859 121.465 4.27159 121.042 4.63406C120.856 4.76377 120.701 4.94678 120.591 5.16621C120.48 5.38564 120.418 5.63442 120.411 5.88962C120.421 6.28357 120.56 6.65735 120.799 6.93219C121.017 7.24234 121.746 7.8066 122.942 8.48296L124.324 9.26769C126.452 10.4934 127.818 11.5471 128.481 12.5411C129.085 13.4803 129.407 14.6308 129.396 15.8108C129.396 17.5298 128.746 19.0319 127.503 20.2277C126.259 21.4235 124.252 22.0139 121.604 22.0176C119.689 21.9658 117.781 21.7233 115.9 21.2927"
            fill="white" />
        <path d="M135.876 3.58398H131.767V21.5356H135.876V3.58398Z" fill="white" />
        <path d="M142.737 21.5356V6.693H137.264V3.58398H152.31V6.693H146.84V21.5356H142.737Z" fill="white" />
        <path d="M46.8965 29.0732H165.601" stroke="white" stroke-width="0.872448" stroke-miterlimit="10" />
        <path
            d="M51.82 36.8262H52.5175L54.992 44.2213H54.3607L53.6916 42.2408H50.5354L49.8663 44.2213H49.2666L51.82 36.8262ZM52.1356 37.525L50.7784 41.5981H53.4864L52.1356 37.525Z"
            fill="white" />
        <path
            d="M55.813 40.0854C55.813 39.6743 55.813 39.2521 55.7783 38.8186H56.3243V39.779C56.4374 39.4331 56.6422 39.1401 56.908 38.944C57.1738 38.7479 57.4863 38.6593 57.7983 38.6916C58.9251 38.6916 59.3543 39.5809 59.3543 40.7655V44.222H58.7925V40.9336C58.7925 39.9172 58.4769 39.2633 57.7099 39.2633C56.681 39.2633 56.3622 40.332 56.3622 41.2288V44.2183H55.7973L55.813 40.0854Z"
            fill="white" />
        <path
            d="M65.2301 36.8262H65.934L68.4053 44.2213H67.774L67.1049 42.2408H63.9487L63.2764 44.2213H62.6768L65.2301 36.8262ZM65.5458 37.525L64.176 41.6055H66.8808L65.5458 37.525Z"
            fill="white" />
        <path
            d="M74.731 44.2222V40.6349C74.731 39.8875 74.4912 39.271 73.7684 39.271C73.1371 39.271 72.5438 39.895 72.5438 41.2365V44.226H71.9788V40.6386C71.9788 39.8913 71.7389 39.2747 71.013 39.2747C70.3818 39.2747 69.7884 39.8987 69.7884 41.2403V44.2297H69.2266V40.1192C69.2266 39.7082 69.2266 39.2859 69.1919 38.8524H69.7221V39.7381H69.7411C69.8554 39.4095 70.054 39.1318 70.3089 38.9441C70.5637 38.7563 70.8619 38.6681 71.1614 38.6918C71.4469 38.6699 71.7292 38.7749 71.9527 38.9864C72.1763 39.1979 72.3252 39.5006 72.3702 39.8352C72.4855 39.4911 72.6871 39.1971 72.9478 38.9926C73.2084 38.7882 73.5158 38.6832 73.8284 38.6918C74.75 38.6918 75.2676 39.4391 75.2676 40.5004V44.2222H74.731Z"
            fill="white" />
        <path
            d="M79.7271 44.0458C79.305 44.2381 78.857 44.3381 78.4047 44.341C76.8929 44.341 76.3311 43.134 76.3311 41.5159C76.3311 39.8979 77.098 38.6909 78.2532 38.6909C79.5378 38.6909 80.0648 39.9166 80.0648 41.3665V41.7065H76.9465C76.9465 42.85 77.4641 43.7692 78.4489 43.7692C78.89 43.7491 79.3216 43.6111 79.7113 43.3657L79.7271 44.0458ZM79.4494 41.1348C79.4494 40.1931 79.1338 39.2664 78.2879 39.2664C77.442 39.2664 76.9465 40.2492 76.9465 41.1348H79.4494Z"
            fill="white" />
        <path
            d="M81.1377 40.0212C81.1467 39.6197 81.1352 39.2179 81.103 38.818H81.6648V39.8531H81.6838C81.8889 39.2514 82.274 38.6909 82.8547 38.6909C82.9869 38.6926 83.1184 38.7139 83.2461 38.7544V39.4532C83.1127 39.4082 82.9744 39.3868 82.8358 39.3897C81.9426 39.3897 81.6996 40.5743 81.6996 41.5458V44.2214H81.1377V40.0212Z"
            fill="white" />
        <path d="M84.6756 37.3759H84.1138V36.4902H84.6756V37.3759ZM84.1138 38.8183H84.6756V44.2217H84.1138V38.8183Z"
            fill="white" />
        <path
            d="M89.0633 39.5359C88.7572 39.3715 88.4271 39.2788 88.0912 39.2631C86.9897 39.2631 86.3743 40.2048 86.3743 41.5052C86.3743 42.7309 87.0055 43.7473 88.0281 43.7473C88.3807 43.7406 88.7293 43.6583 89.057 43.5044L89.1107 44.1284C88.7327 44.2721 88.3364 44.3366 87.9397 44.319C86.4721 44.319 85.7588 42.9962 85.7588 41.494C85.7588 39.8311 86.6615 38.669 88.0092 38.669C88.3835 38.6672 88.7556 38.7379 89.1107 38.8782L89.0633 39.5359Z"
            fill="white" />
        <path
            d="M92.6831 43.3478H92.6642C92.5238 43.6548 92.3145 43.9101 92.0595 44.0855C91.8045 44.2608 91.5135 44.3495 91.2187 44.3418C89.9215 44.3418 89.7163 43.3029 89.7163 42.8171C89.7163 41.0085 91.3417 40.9226 92.5222 40.9226H92.6295V40.6498C92.6295 39.7268 92.3517 39.2635 91.5942 39.2635C91.1199 39.2524 90.6534 39.4071 90.2529 39.7081V39.0617C90.6752 38.8351 91.1309 38.7082 91.5942 38.688C92.7179 38.688 93.1944 39.2896 93.1944 40.6984V43.1011C93.1863 43.4756 93.2011 43.8503 93.2386 44.2222H92.6831V43.3478ZM92.6295 41.4794H92.4685C91.4933 41.4794 90.3318 41.5952 90.3318 42.7798C90.3318 43.4898 90.761 43.7551 91.2786 43.7551C92.6042 43.7551 92.6295 42.3912 92.6295 41.8082V41.4794Z"
            fill="white" />
        <path
            d="M94.5323 40.0846C94.5323 39.6736 94.5323 39.2513 94.4976 38.8178H95.0404V39.7782H95.0594C95.1731 39.429 95.3804 39.1336 95.6494 38.9372C95.9185 38.7408 96.2345 38.6543 96.5491 38.6908C97.6759 38.6908 98.1051 39.5801 98.1051 40.7647V44.2212H97.5275V40.9329C97.5275 39.9165 97.2119 39.2625 96.4449 39.2625C95.416 39.2625 95.0941 40.3312 95.0941 41.2281V44.2175H94.5323V40.0846Z"
            fill="white" />
        <path d="M103.209 37.4614H101.369V36.8262H105.668V37.4614H103.828V44.2213H103.197L103.209 37.4614Z"
            fill="white" />
        <path
            d="M107.24 38.6909C108.714 38.6909 109.367 40.0436 109.367 41.5159C109.367 42.9882 108.714 44.341 107.24 44.341C105.766 44.341 105.112 42.9845 105.112 41.5159C105.112 40.0474 105.766 38.6909 107.24 38.6909ZM107.24 43.7692C108.224 43.7692 108.751 42.764 108.751 41.5272C108.751 40.2903 108.224 39.2851 107.24 39.2851C106.255 39.2851 105.731 40.2903 105.731 41.5272C105.731 42.764 106.258 43.7692 107.24 43.7692Z"
            fill="white" />
        <path
            d="M115.115 44.2213H114.436L113.193 39.554H113.174L111.933 44.2213H111.252L109.787 38.8253H110.403L111.602 43.4926H111.618L112.88 38.8253H113.559L114.774 43.4739H114.793L116.055 38.8066H116.62L115.115 44.2213Z"
            fill="white" />
        <path
            d="M120.439 44.0458C120.016 44.2381 119.568 44.3381 119.116 44.341C117.604 44.341 117.042 43.134 117.042 41.5159C117.042 39.8979 117.809 38.6909 118.965 38.6909C120.252 38.6909 120.779 39.9166 120.779 41.3665V41.7065H117.658C117.658 42.85 118.179 43.7692 119.16 43.7692C119.607 43.7519 120.044 43.6138 120.439 43.3657V44.0458ZM120.161 41.1348C120.161 40.1931 119.845 39.2664 118.999 39.2664C118.153 39.2664 117.658 40.2492 117.658 41.1348H120.161Z"
            fill="white" />
        <path
            d="M121.849 40.0212C121.858 39.6197 121.847 39.2179 121.814 38.818H122.376V39.8531H122.395C122.6 39.2514 122.985 38.6909 123.566 38.6909C123.698 38.6926 123.83 38.7139 123.958 38.7544V39.4532C123.824 39.4077 123.686 39.3863 123.547 39.3897C122.654 39.3897 122.414 40.5743 122.414 41.5458V44.2214H121.849V40.0212Z"
            fill="white" />
        <path
            d="M131.653 37.653C131.215 37.4264 130.739 37.318 130.261 37.3353C128.642 37.3353 127.736 38.6918 127.736 40.5228C127.736 42.3539 128.623 43.7066 130.261 43.7066C130.74 43.7305 131.216 43.6218 131.653 43.389L131.691 44.0242C131.239 44.2516 130.752 44.3599 130.261 44.3418C128.295 44.3418 127.105 42.806 127.105 40.5228C127.105 38.2396 128.32 36.7001 130.261 36.7001C130.748 36.6891 131.232 36.7828 131.691 36.9766L131.653 37.653Z"
            fill="white" />
        <path
            d="M135.056 38.6909C136.529 38.6909 137.183 40.0436 137.183 41.5159C137.183 42.9882 136.529 44.341 135.056 44.341C133.582 44.341 132.928 42.9845 132.928 41.5159C132.928 40.0474 133.575 38.6909 135.056 38.6909ZM135.056 43.7692C136.04 43.7692 136.567 42.764 136.567 41.5272C136.567 40.2903 136.04 39.2851 135.056 39.2851C134.071 39.2851 133.544 40.2903 133.544 41.5272C133.544 42.764 134.068 43.7692 135.056 43.7692Z"
            fill="white" />
        <path
            d="M143.744 44.2216V40.6343C143.744 39.8869 143.505 39.2703 142.779 39.2703C142.147 39.2703 141.554 39.8944 141.554 41.2359V44.2253H140.992V40.638C140.992 39.8906 140.749 39.2741 140.026 39.2741C139.411 39.2741 138.802 39.8981 138.802 41.2396V44.2291H138.24V40.1186C138.246 39.6958 138.233 39.273 138.202 38.8518H138.748V39.7374H138.767C138.881 39.4082 139.079 39.1298 139.334 38.942C139.589 38.7541 139.888 38.6663 140.187 38.6911C140.473 38.6685 140.755 38.7734 140.978 38.9851C141.201 39.1968 141.349 39.4999 141.393 39.8346H141.412C141.527 39.4905 141.729 39.1964 141.99 38.992C142.25 38.7876 142.558 38.6826 142.87 38.6911C143.789 38.6911 144.309 39.4385 144.309 40.4997V44.2216H143.744Z"
            fill="white" />
        <path
            d="M145.628 38.8175H146.193L146.156 39.8003H146.174C146.298 39.4655 146.501 39.1808 146.76 38.9816C147.019 38.7824 147.321 38.6772 147.629 38.6792C148.971 38.6792 149.523 39.8638 149.523 41.5042C149.523 43.1447 148.892 44.3293 147.629 44.3293C147.33 44.3558 147.03 44.2688 146.775 44.0807C146.52 43.8926 146.322 43.6132 146.209 43.283V46.4256H145.628V38.8175ZM147.541 39.2622C146.541 39.2622 146.193 40.5289 146.193 41.5042C146.193 42.4796 146.541 43.7463 147.541 43.7463C148.614 43.7463 148.892 42.5393 148.892 41.5042C148.892 40.4692 148.627 39.2622 147.541 39.2622Z"
            fill="white" />
        <path
            d="M153.27 43.3478H153.251C153.111 43.6548 152.901 43.9101 152.646 44.0855C152.391 44.2608 152.1 44.3495 151.806 44.3418C150.508 44.3418 150.303 43.3029 150.303 42.8171C150.303 41.0085 151.929 40.9226 153.109 40.9226H153.216V40.6498C153.216 39.7268 152.939 39.2635 152.181 39.2635C151.707 39.2524 151.24 39.4071 150.84 39.7081V39.0617C151.262 38.8351 151.718 38.7082 152.181 38.688C153.305 38.688 153.781 39.2896 153.781 40.6984V43.1011C153.773 43.4756 153.788 43.8503 153.826 44.2222H153.27V43.3478ZM153.216 41.4794H153.046C152.071 41.4794 150.909 41.5952 150.909 42.7798C150.909 43.4898 151.338 43.7551 151.856 43.7551C153.182 43.7551 153.207 42.3912 153.207 41.8082L153.216 41.4794Z"
            fill="white" />
        <path
            d="M155.119 40.0846C155.119 39.6736 155.119 39.2513 155.084 38.8179H155.627V39.7782H155.646C155.759 39.432 155.964 39.1386 156.23 38.9424C156.495 38.7463 156.808 38.6579 157.12 38.6908C158.247 38.6908 158.676 39.5802 158.676 40.7647V44.2213H158.114V40.9329C158.114 39.9165 157.799 39.2625 157.032 39.2625C156.003 39.2625 155.681 40.3313 155.681 41.2281V44.2175H155.119V40.0846Z"
            fill="white" />
        <path
            d="M161.356 43.3137L162.669 38.8296H163.259L161.438 45.0289C161.223 45.7763 160.901 46.5237 160.267 46.5237C160.062 46.5222 159.857 46.4934 159.658 46.4377L159.711 45.866C159.846 45.9249 159.988 45.954 160.131 45.9519C160.614 45.9519 160.762 45.4736 160.955 44.7748L161.072 44.3003L159.453 38.8408H160.068L161.356 43.3137Z"
            fill="white" />
    </g>
    <defs>
        <clipPath id="clip0_3664_19000">
            <rect width="165" height="46" fill="white" transform="translate(0.600098 0.5)" />
        </clipPath>
    </defs>
</svg>