<svg width="140" height="40" viewBox="0 0 140 40" fill="none" xmlns="http://www.w3.org/2000/svg">
    <path
        d="M11.109 4.45155L17.3471 0.918644C17.5247 0.818134 17.7451 0.818134 17.9227 0.918644L34.3633 10.2275C34.541 10.328 34.6503 10.514 34.6521 10.715L34.6742 17.1175C34.6742 17.3201 34.5649 17.5078 34.3855 17.6083L28.1561 21.1361C27.7733 21.354 27.2935 21.0825 27.2917 20.6487L27.2712 14.9029C27.2712 14.7019 27.1603 14.5159 26.9826 14.4154L11.109 5.42984C10.7247 5.21207 10.7247 4.66932 11.109 4.45155Z"
        fill="#81838C" />
    <path
        d="M7.08018 33.4517L0.843847 29.9204C0.664495 29.8199 0.555176 29.6339 0.555176 29.4311V10.8135C0.555176 10.6125 0.664495 10.4265 0.842139 10.3243L6.48575 7.10301C6.66511 7.00082 6.88545 7.00082 7.0631 7.10301L13.2926 10.6309C13.6752 10.8487 13.6769 11.3897 13.2943 11.6092L8.23145 14.4988C8.0538 14.5994 7.94449 14.7853 7.94449 14.988V32.9641C7.94449 33.3997 7.4645 33.6694 7.08018 33.4517Z"
        fill="#81838C" />
    <path
        d="M34.6745 22.3663V29.4288C34.6745 29.6316 34.5652 29.8174 34.3858 29.9179L17.9452 39.2269C17.7675 39.3274 17.5489 39.3274 17.3713 39.2269L11.7054 36.044C11.5261 35.9435 11.415 35.7559 11.415 35.5531V28.4991C11.415 28.0653 11.8933 27.7938 12.2776 28.0082L17.361 30.8644C17.5387 30.965 17.7573 30.9633 17.9349 30.8644L33.8085 21.8756C34.1927 21.6578 34.6727 21.9292 34.6727 22.3647L34.6745 22.3663Z"
        fill="#81838C" />
    <path
        d="M87.9894 10.5539H81.6216C81.3449 10.5539 81.1227 10.7734 81.1227 11.0447V22.9233C81.1227 24.4426 80.8717 25.714 80.3677 26.736C79.8638 27.7276 79.172 28.4714 78.2907 28.9673C77.4094 29.4313 76.4015 29.6658 75.2691 29.6658C73.631 29.6658 72.3567 29.185 71.4445 28.2251C70.5632 27.2335 70.1225 25.6973 70.1225 23.6219V11.0464C70.1225 10.775 69.8987 10.5556 69.6236 10.5556H64.9981C64.9606 10.5489 64.923 10.5455 64.8854 10.5455H55.6718V10.043C55.6718 8.83351 55.9553 7.93562 56.5225 7.34597C57.1203 6.72616 57.9556 6.41625 59.0248 6.41625C59.592 6.41625 60.1267 6.49332 60.6304 6.64911C60.9413 6.74626 61.2471 6.87191 61.5119 7.00927C61.7766 7.14662 62.1047 7.01597 62.2054 6.73789L63.7973 2.41765C63.8793 2.19318 63.7871 1.94191 63.5769 1.82297C62.9552 1.46951 62.2259 1.20316 61.3855 1.02225C60.4102 0.806151 59.387 0.697266 58.3161 0.697266C55.1697 0.697266 52.7458 1.54992 51.0445 3.25524C49.345 4.92871 48.4943 7.17677 48.4943 9.99774V10.5455H45.167C44.8407 10.5455 44.5742 10.765 44.5742 11.0364V15.633C44.5742 15.9044 44.839 16.1238 45.167 16.1238H48.4943V35.0782C48.4943 35.3495 48.7181 35.569 48.9931 35.569H55.3593C55.6342 35.569 55.858 35.3495 55.858 35.0782V16.1238H62.7553V24.6889C62.7553 27.2619 63.2114 29.386 64.1253 31.0596C65.0391 32.7029 66.3134 33.9274 67.9498 34.7331C69.6186 35.5389 71.5078 35.9427 73.6156 35.9427C75.568 35.9427 77.3614 35.5088 78.9978 34.6393C79.9715 34.115 80.805 33.445 81.5002 32.6341V35.0782C81.5002 35.3495 81.724 35.569 81.9989 35.569H87.9894C88.2661 35.569 88.4881 35.3495 88.4881 35.0782V11.0464C88.4881 10.775 88.2644 10.5556 87.9894 10.5556V10.5539Z"
        fill="#81838C" />
    <path
        d="M109.429 22.4561C108.547 21.9284 107.555 21.5264 106.453 21.2466C105.353 20.9685 104.25 20.7659 103.148 20.6418C102.079 20.4861 101.086 20.3169 100.173 20.131C99.2605 19.945 98.5192 19.6971 97.9538 19.3872C97.4175 19.0774 97.1509 18.6133 97.1509 17.9918C97.1509 17.31 97.5284 16.7521 98.2851 16.3183C99.0401 15.8845 100.237 15.6683 101.874 15.6683C103.039 15.6683 104.235 15.8074 105.463 16.0871C106.564 16.3032 107.652 16.6985 108.73 17.2715C108.985 17.4055 109.299 17.3066 109.422 17.0504L111.455 12.7787C111.566 12.5459 111.475 12.2644 111.246 12.1421C110.122 11.5407 108.763 11.0734 107.164 10.7434C105.37 10.3715 103.608 10.1855 101.876 10.1855C99.421 10.1855 97.3116 10.5424 95.5488 11.2543C93.786 11.9378 92.4331 12.8826 91.4886 14.092C90.5763 15.3015 90.1186 16.6952 90.1186 18.2765C90.1186 19.7021 90.3868 20.8647 90.9215 21.7642C91.4886 22.6622 92.2282 23.3758 93.1402 23.9035C94.0541 24.431 95.0602 24.8332 96.1619 25.1128C97.2636 25.3607 98.35 25.5619 99.4194 25.7176C100.521 25.8735 101.529 26.0276 102.441 26.1817C103.353 26.3375 104.077 26.5703 104.614 26.8802C105.181 27.1599 105.464 27.5938 105.464 28.1818C105.464 28.8953 105.102 29.4532 104.378 29.8552C103.686 30.2574 102.489 30.46 100.789 30.46C99.2468 30.46 97.6737 30.244 96.068 29.8101C94.6999 29.4063 93.4871 28.9087 92.4279 28.3175C92.1735 28.1751 91.8507 28.2756 91.7277 28.5369L89.6882 32.8639C89.5805 33.0917 89.6677 33.3614 89.8847 33.4921C91.0035 34.1621 92.4502 34.7333 94.2249 35.2041C96.2388 35.6999 98.333 35.9478 100.504 35.9478V35.9445C103.052 35.9445 105.21 35.6043 106.973 34.9227C108.766 34.2409 110.136 33.3112 111.081 32.1336C112.025 30.9256 112.497 29.5454 112.497 27.9958C112.497 26.5703 112.213 25.4228 111.646 24.5551C111.079 23.6556 110.339 22.9586 109.427 22.4628L109.429 22.4561Z"
        fill="#81838C" />
    <path
        d="M138.002 16.2297C136.837 14.2765 135.248 12.7889 133.233 11.7654C131.25 10.7117 129.109 10.1841 126.528 10.1841C123.947 10.1841 121.633 10.7419 119.588 11.8576C117.542 12.9414 115.921 14.4608 114.725 16.414C113.561 18.3354 112.978 20.5835 112.978 23.0626C112.978 25.542 113.576 27.7599 114.772 29.7113C115.967 31.6328 117.651 33.1521 119.822 34.2679C122.026 35.3834 124.574 35.9413 127.471 35.9413V35.9446C129.77 35.9446 131.801 35.6029 133.562 34.9229C135.17 34.2728 136.528 33.3766 137.638 32.2376C137.819 32.0516 137.819 31.7568 137.641 31.5658L134.37 28.0732C134.186 27.8771 133.879 27.8637 133.672 28.0397C132.919 28.6845 132.095 29.1804 131.2 29.5271C130.192 29.9293 129.012 30.1318 127.659 30.1318C126.149 30.1318 124.827 29.8689 123.693 29.3412C122.591 28.7834 121.725 27.9926 121.097 26.9708C120.77 26.398 120.538 25.7765 120.389 25.1097H139.153C139.409 25.1097 139.625 24.9171 139.649 24.6659C139.666 24.4933 139.683 24.3141 139.698 24.1331C139.731 23.7612 139.746 23.4362 139.746 23.1564C139.746 20.4595 139.163 18.1512 137.998 16.2281L138.002 16.2297ZM123.223 16.5095C124.199 15.9516 125.317 15.6719 126.576 15.6719C127.835 15.6719 128.937 15.9516 129.882 16.5095C130.826 17.0354 131.566 17.7809 132.1 18.7408C132.456 19.3773 132.69 20.091 132.809 20.8783H120.304C120.427 20.1044 120.659 19.4058 121.004 18.7861C121.541 17.7943 122.279 17.0354 123.223 16.5078V16.5095Z"
        fill="#81838C" />
</svg>