<svg width="193" height="43" viewBox="0 0 193 43" fill="none" xmlns="http://www.w3.org/2000/svg">
    <g opacity="0.5">
        <path
            d="M71.3496 14.3767H66.9385V35.4364H71.3496V26.8987H81.0257V35.4364H85.2946V14.3767H81.0257V22.9144H71.3496V14.3767ZM105.216 26.4718C105.216 29.8869 103.508 31.7367 100.378 31.7367C97.2474 31.7367 95.5399 29.8869 95.5399 26.3295V14.3767H91.271V26.4718C91.271 32.4482 94.5438 35.8633 100.378 35.8633C106.212 35.8633 109.485 32.4482 109.485 26.3295V14.3767H105.216V26.4718ZM146.482 14.3767L141.644 28.8908L136.948 14.3767H132.394L139.794 35.4364H143.351L148.189 21.6337L152.885 35.4364H156.585L163.842 14.3767H159.431L154.735 28.8908L149.897 14.3767H146.482ZM179.352 22.4875H171.526V18.2187H182.909V14.3767H167.257V35.4364H183.336V31.5944H171.526V26.3295H179.352V22.4875ZM188.459 14.3767H192.728V35.4364H188.459V14.3767ZM127.556 31.0253L129.406 35.4364H133.96L124.71 14.3767L124.568 14.2344H120.869L111.619 35.4364H116.03L117.88 31.3098L118.023 31.0253H127.556ZM122.718 19.6416L125.707 26.7564L125.849 27.1833H119.303L119.446 26.7564L122.718 19.6416Z"
            fill="white" />
        <path
            d="M24.8188 33.3019C24.8188 33.3019 24.9611 33.1596 24.8188 33.1596C18.2732 18.9301 9.3086 7.97331 9.3086 7.97331C9.3086 7.97331 4.47055 12.5268 4.75514 17.2225C4.89744 20.7799 7.60105 22.772 7.60105 22.772C11.8699 26.8986 22.1152 32.1636 24.5342 33.3019H24.8188ZM23.1113 36.8593C23.1113 36.717 22.8267 36.717 22.8267 36.717L5.75121 37.2862C7.60105 40.559 10.7316 43.1203 14.0044 42.4088C16.2811 41.8397 21.4037 38.2823 22.969 37.1439C23.2536 36.8593 23.1113 36.8593 23.1113 36.8593ZM23.3959 35.2941C23.5382 35.1518 23.3959 35.0095 23.3959 35.0095C15.8542 29.8868 1.34005 22.2029 1.34005 22.2029C0.0593879 26.3294 1.76693 29.6022 1.76693 29.6022C3.61678 33.5865 7.17417 34.7249 7.17417 34.7249C8.73942 35.4364 10.447 35.4364 10.447 35.4364H23.2536C23.3959 35.4364 23.3959 35.2941 23.3959 35.2941ZM24.5342 0.573936C23.8228 0.573936 21.8306 1.14312 21.8306 1.14312C17.2772 2.28148 16.2811 6.40805 16.2811 6.40805C15.4273 8.96938 16.2811 11.8153 16.2811 11.8153C17.8463 18.5032 25.2457 29.6022 26.811 31.879L26.9533 32.0213C27.0956 32.0213 27.0956 31.879 27.0956 31.879C29.6569 6.97724 24.5342 0.573936 24.5342 0.573936ZM30.2261 31.879C30.3683 31.879 30.5106 31.7367 30.5106 31.7367C32.2182 29.3176 39.4753 18.3609 41.0405 11.673C41.0405 11.673 41.8943 8.40019 41.0405 6.26576C41.0405 6.26576 39.9022 2.13919 35.3487 1.00082C35.3487 1.00082 34.068 0.716232 32.6451 0.431641C32.6451 0.431641 27.5224 6.97724 30.0838 31.5944C30.0838 31.879 30.2261 31.879 30.2261 31.879ZM34.2103 36.717C34.2103 36.717 34.068 36.717 34.068 36.8593V37.1439C35.7756 38.2823 40.6136 41.8397 43.0327 42.4088C43.0327 42.4088 47.4438 43.9741 51.2858 37.2862L34.2103 36.717ZM55.9816 22.0606C55.9816 22.0606 41.4674 29.8868 33.9257 35.0095C33.9257 35.0095 33.7834 35.1518 33.7834 35.2941C33.7834 35.2941 33.7834 35.4364 33.9257 35.4364H47.0169C47.0169 35.4364 48.2976 35.4364 50.0051 34.7249C50.0051 34.7249 53.5625 33.5865 55.5547 29.4599C55.5547 29.3176 57.2622 26.0448 55.9816 22.0606ZM32.5028 33.3019C32.5028 33.3019 32.6451 33.4442 32.7874 33.3019C35.2064 32.0213 45.4517 26.8986 49.7206 22.772C49.7206 22.772 52.4242 20.6376 52.5665 17.2225C52.8511 12.3845 48.013 7.97331 48.013 7.97331C48.013 7.97331 39.0484 18.6455 32.5028 33.0173C32.5028 33.0173 32.3605 33.1596 32.5028 33.3019Z"
            fill="white" />
    </g>
</svg>