<svg width="107" height="34" viewBox="0 0 107 34" fill="none" xmlns="http://www.w3.org/2000/svg">
    <path fill-rule="evenodd" clip-rule="evenodd" d="M7.89627 21.7091L1.03979 28.7026V14.7085L7.89627 21.7091Z"
        fill="#81838C" />
    <path fill-rule="evenodd" clip-rule="evenodd"
        d="M7.89605 7.67751L1.00872 14.6033V14.709L0.977783 14.6784V0.714844L7.89605 7.67751Z" fill="#81838C" />
    <path fill-rule="evenodd" clip-rule="evenodd"
        d="M28.7746 28.7026H14.7824L7.89624 21.7384L14.8584 14.7085L28.7746 28.7026Z" fill="#81838C" />
    <path fill-rule="evenodd" clip-rule="evenodd"
        d="M28.7745 0.59082L14.878 14.7088L7.89624 7.64469L14.878 0.59082H28.7745Z" fill="#81838C" />
    <path fill-rule="evenodd" clip-rule="evenodd"
        d="M7.95414 7.6499L14.9378 14.641L7.96935 21.644L1.03955 14.6702V14.5646L7.95414 7.6499Z" fill="#81838C" />
    <mask id="mask0_3664_18862" style="mask-type:alpha" maskUnits="userSpaceOnUse" x="55" y="11" width="16" height="23">
        <path d="M55.1501 11.1797H70.9635V33.4093H55.1501V11.1797Z" fill="#81838C" />
    </mask>
    <g mask="url(#mask0_3664_18862)">
        <path fill-rule="evenodd" clip-rule="evenodd"
            d="M67.146 20.5105C66.5671 21.9514 65.5104 24.4896 64.9651 25.7249C64.6245 26.514 64.2154 27.4058 63.7721 28.3666C63.0904 29.8758 62.6135 30.9393 61.4212 33.4093H56.0362C56.9221 32.5168 57.2291 32.1057 57.7745 31.3504C58.6263 30.1158 59.2401 29.0177 60.7052 25.965L55.1501 11.1797H60.6709L63.4315 19.2069H63.4994L66.4643 11.1797H70.9635L67.146 20.5105Z"
            fill="#81838C" />
    </g>
    <path fill-rule="evenodd" clip-rule="evenodd" d="M73.0637 26.1642H78.1908V1.64355H73.0637V26.1642Z"
        fill="#81838C" />
    <path fill-rule="evenodd" clip-rule="evenodd" d="M82.5142 26.1645H87.7034V10.127H82.5142V26.1645Z" fill="#81838C" />
    <path fill-rule="evenodd" clip-rule="evenodd"
        d="M101.618 26.1641V18.1675C101.618 16.5274 100.801 15.5015 99.4394 15.5015C98.0776 15.5015 97.2613 16.5274 97.2613 18.1675V26.1641H92.0889V10.5601H97.0234V13.4175C98.6567 11.6056 100.154 10.7858 101.89 10.7858C104.851 10.7858 106.79 12.9729 106.79 16.2196V26.1641H101.618Z"
        fill="#81838C" />
    <path fill-rule="evenodd" clip-rule="evenodd"
        d="M88.0118 4.52282C88.0118 6.14754 86.6988 7.46403 85.0782 7.46403C83.4575 7.46403 82.1438 6.14754 82.1438 4.52282C82.1438 2.89869 83.4575 1.58154 85.0782 1.58154C86.6988 1.58154 88.0118 2.89869 88.0118 4.52282Z"
        fill="#81838C" />
    <path fill-rule="evenodd" clip-rule="evenodd"
        d="M34.7659 1.3335H40.2273V13.0501L47.8674 1.3335H54.3368L45.949 13.6724L55.15 26.6589L48.3551 26.6591L40.2273 15.0711V26.6591L34.7659 26.6589V1.3335Z"
        fill="#81838C" />
</svg>