<svg width="148" height="48" viewBox="0 0 148 48" fill="none" xmlns="http://www.w3.org/2000/svg">
    <g clip-path="url(#clip0_3664_18836)">
        <mask id="mask0_3664_18836" style="mask-type:luminance" maskUnits="userSpaceOnUse" x="0" y="0" width="148"
            height="48">
            <path d="M147.891 0H0.890625V48H147.891V0Z" fill="white" />
        </mask>
        <g mask="url(#mask0_3664_18836)">
            <path
                d="M4.98926 37.6018C5.40813 38.2284 5.85446 38.833 6.32822 39.4152C7.7745 39.0886 9.06066 38.2415 9.95607 37.0257C10.6118 36.1735 11.0266 34.7747 11.1552 32.9801C11.2162 32.1293 11.1862 28.2478 11.1599 24.8232C11.1366 21.8061 11.1165 19.2005 11.1545 18.5654C11.2808 16.4536 12.8524 14.8613 14.8101 14.8613H14.8908C16.8487 14.8613 18.4203 16.4536 18.5466 18.5655C18.5846 19.201 18.5645 21.516 18.5409 24.1963C18.5146 27.2305 18.4846 30.6694 18.5456 31.5197C18.6652 33.1848 19.0573 34.4287 19.7448 35.322C20.277 36.0185 20.9558 36.5812 21.7297 36.9674C22.5037 37.3537 23.3527 37.5537 24.2127 37.5523H24.52C25.3799 37.5538 26.2289 37.354 27.0029 36.9677C27.777 36.5813 28.4556 36.0188 28.9879 35.3224C29.6752 34.4291 30.0676 33.1854 30.187 31.5201C30.2475 30.675 30.218 28.4993 30.1919 26.5799C30.1685 24.8434 30.1481 23.3438 30.1863 22.7032C30.3126 20.5915 31.8843 18.9991 33.8419 18.9991H33.9228C35.8806 18.9991 37.4521 20.5915 37.5784 22.7033C37.6166 23.3414 37.5962 25.1777 37.5728 27.3043C37.5465 29.6817 37.5167 32.3764 37.5774 33.2237C37.6969 34.8888 38.0891 36.1327 38.7766 37.026C39.6052 38.1409 40.7594 38.9516 42.0689 39.3385C42.5271 38.7705 42.9596 38.1808 43.3666 37.5696C40.9569 37.2071 39.7116 35.2105 39.5479 33.2243C39.4736 32.3294 39.5077 30.1216 39.5438 27.7843C39.5765 25.6719 39.6101 23.4874 39.5484 22.7969C39.3854 20.9728 38.9782 19.8327 38.1432 18.8618C37.6119 18.2378 36.9567 17.7388 36.222 17.3985C35.4874 17.0582 34.6904 16.8847 33.8851 16.8898H33.8559C33.0506 16.8847 32.2535 17.0583 31.5188 17.3985C30.7841 17.7388 30.129 18.2378 29.5976 18.862C28.7627 19.8324 28.3555 20.9726 28.1926 22.7969C28.1309 23.4855 28.1644 25.3022 28.1968 27.0591C28.2329 29.0174 28.2672 30.8673 28.193 31.764C28.0196 33.8613 26.4466 35.4429 24.5339 35.4429H24.2763C22.3631 35.4429 20.79 33.8613 20.6171 31.764C20.5432 30.8713 20.5773 28.0073 20.6129 24.975C20.6441 22.3392 20.6796 19.3518 20.6176 18.659C20.4548 16.8351 20.0474 15.695 19.2124 14.7242C18.6811 14.1001 18.026 13.601 17.2913 13.2607C16.5567 12.9204 15.7597 12.747 14.9543 12.7521H14.6891C13.8837 12.747 13.0867 12.9206 12.352 13.2609C11.6173 13.6012 10.9621 14.1002 10.4308 14.7244C9.59593 15.6948 9.18871 16.8347 9.02573 18.6592C8.96354 19.3533 8.99897 22.7292 9.03017 25.7078C9.06608 29.1148 9.09991 32.333 9.02618 33.2242C8.85786 35.2703 7.5445 37.332 4.98926 37.6018Z"
                fill="#81838C" />
            <path
                d="M24.167 5.12194e-10C21.1102 -2.05895e-05 18.0835 0.620741 15.2595 1.82684C12.4355 3.03294 9.86956 4.80077 7.70814 7.02937C5.54674 9.25797 3.83222 11.9037 2.66246 14.8156C1.49272 17.7274 0.890654 20.8482 0.89065 24C0.884798 28.1309 1.91797 32.1928 3.8893 35.7892C4.52287 35.7072 5.13384 35.4941 5.68545 35.1624C6.69306 34.6197 6.88369 33.466 6.919 33.0392C6.98377 32.2521 6.9474 28.7876 6.91547 25.7312C6.87323 21.7076 6.85233 19.2105 6.91945 18.4589C7.06451 16.8366 7.40721 14.9524 8.84878 13.2769C9.57736 12.4208 10.4759 11.7361 11.4835 11.2692C12.4912 10.8024 13.5843 10.5644 14.689 10.5712H14.9404C16.0473 10.5628 17.1431 10.8001 18.1532 11.267C19.1632 11.7339 20.0641 12.4194 20.7945 13.2771C22.2361 14.9528 22.5788 16.8369 22.7239 18.459C22.7908 19.2105 22.7701 21.432 22.7278 25.0014C22.6957 27.7155 22.6594 30.7916 22.7243 31.5788C22.7934 32.4153 23.3487 33.262 24.2762 33.262H24.5232C25.4613 33.262 26.0166 32.4153 26.0858 31.5788C26.1504 30.795 26.1158 28.9167 26.0823 27.1002C26.0471 25.2004 26.014 23.4057 26.0863 22.5966C26.2313 20.9742 26.574 19.09 28.0156 17.4147C28.7442 16.5585 29.6427 15.8737 30.6504 15.4069C31.658 14.9401 32.7512 14.702 33.8559 14.7088H33.8849C34.9896 14.702 36.0828 14.9401 37.0905 15.407C38.0982 15.8737 38.9968 16.5585 39.7254 17.4147C41.1668 19.0904 41.5094 20.9745 41.6545 22.5966C41.7266 23.4042 41.6934 25.5486 41.6585 27.8189C41.6265 29.8976 41.5901 32.2537 41.6549 33.039C41.694 33.5192 41.8411 33.9832 42.0847 34.3944L42.0944 34.4107C42.1121 34.439 42.1304 34.4667 42.1495 34.4944C42.7786 35.4283 43.9417 35.7068 44.446 35.786C46.4163 32.1906 47.4488 28.1298 47.4429 24C47.4429 17.6348 44.9907 11.5304 40.6256 7.0295C36.2605 2.52861 30.3401 3.3267e-05 24.167 5.12194e-10Z"
                fill="#81838C" />
            <path
                d="M37.1202 38.3815C36.1603 37.1343 35.6202 35.4998 35.4686 33.3843C35.401 32.4442 35.43 29.8185 35.458 27.2793C35.4793 25.3701 35.501 23.3959 35.4676 22.8374C35.4102 21.8769 34.7607 21.1796 33.923 21.1796H33.8421C33.0044 21.1796 32.3549 21.8769 32.2975 22.8372C32.264 23.3954 32.286 24.9986 32.3068 26.5492C32.335 28.6094 32.3639 30.7401 32.2962 31.6807C32.1446 33.7964 31.6044 35.4309 30.6446 36.6778C29.915 37.6321 28.9845 38.403 27.9234 38.9323C26.8624 39.4615 25.6986 39.7353 24.5201 39.7327H24.2126C23.0339 39.7351 21.8703 39.4614 20.8093 38.9321C19.7483 38.403 18.8178 37.6321 18.0881 36.6778C17.1282 35.4305 16.5881 33.796 16.4364 31.6806C16.3688 30.7403 16.3979 27.4036 16.4261 24.1769C16.4469 21.7588 16.4686 19.2583 16.4354 18.6995C16.378 17.7393 15.7282 17.042 14.8906 17.042H14.8099C13.9721 17.042 13.3227 17.7393 13.2651 18.6996C13.2317 19.2591 13.2535 22.079 13.2746 24.806C13.3025 28.4417 13.3317 32.2013 13.264 33.1409C13.1018 35.405 12.546 37.168 11.6124 38.3813C10.661 39.649 9.39354 40.6265 7.94531 41.2092C12.2848 45.5707 18.1073 48.0081 24.1673 48C30.2836 48.0079 36.1556 45.5252 40.5057 41.0919C39.1747 40.495 38.0107 39.5631 37.1202 38.3815Z"
                fill="#81838C" />
            <path
                d="M74.9004 31.7401H71.2221V22.4989C71.2221 20.7531 70.5505 19.6994 68.9451 19.6994C67.3102 19.6994 66.1424 20.9638 66.1424 23.432V31.7401H62.4641V22.5591C62.4641 20.7533 61.7341 19.6994 60.1284 19.6994C58.6978 19.6994 57.3841 20.964 57.3841 23.3718V31.7401H53.7061V16.8098H57.3844V18.7964C57.8266 18.0575 58.4455 17.4481 59.1814 17.0264C59.9175 16.6049 60.7464 16.3853 61.5883 16.3884C63.7196 16.3884 65.0041 17.3516 65.6171 18.9471C66.1066 18.1466 66.7887 17.4903 67.5969 17.042C68.4052 16.5937 69.3122 16.3686 70.2297 16.3884C73.2365 16.3884 74.9005 18.345 74.9005 21.2949L74.9004 31.7401Z"
                fill="#81838C" />
            <path
                d="M87.5143 31.7395C87.0287 31.0503 86.7819 30.2128 86.8138 29.3616C85.7919 31.2278 84.0401 32.1609 81.9674 32.1609C79.1064 32.1609 77.0923 30.3247 77.0923 27.4951C77.0923 24.4549 79.5152 22.98 82.2593 22.5584L86.6094 21.8663V21.2942C86.6094 19.8495 85.7336 19.0367 83.9528 19.0367C82.2593 19.0367 81.3544 19.7891 81.3544 20.7222C81.3495 20.8455 81.3694 20.9685 81.413 21.0836L78.1139 22.2271C77.9405 21.8298 77.8509 21.3989 77.8511 20.9631C77.8511 18.6452 80.0699 16.3877 83.9528 16.3877C88.0107 16.3877 90.2876 18.1636 90.2876 21.8059V28.0367C90.2876 29.7524 90.5505 30.6859 91.2511 31.7394L87.5143 31.7395ZM86.6094 24.7559V24.485L83.1059 25.0871C81.5295 25.3581 80.6828 26.0805 80.6828 27.2846C80.6828 28.4888 81.5586 29.0908 82.8432 29.0908C84.9744 29.0905 86.6094 27.6458 86.6094 24.7559Z"
                fill="#81838C" />
            <path
                d="M97.1784 32.5826C97.0614 32.9103 97.002 33.2568 97.0032 33.606C97.0032 34.5994 98.171 35.2918 100.215 35.2918C102.404 35.2918 103.776 34.1177 103.776 31.1981V29.2716C103.046 30.5057 101.704 31.4991 99.6598 31.4991C95.8355 31.4991 92.6826 28.3985 92.6826 23.9435C92.6826 19.4885 95.9525 16.3882 99.6892 16.3882C101.441 16.3882 102.9 17.1106 103.776 18.435V16.8096H107.455V30.7164C107.455 35.8036 104.535 38.302 100.215 38.302C95.8941 38.302 93.2664 36.3755 93.2664 33.1846C93.2588 32.5862 93.3996 31.9956 93.6751 31.4688L97.1784 32.5826ZM96.2443 23.9435C96.2443 26.6827 98.0251 28.1878 100.069 28.1878C102.112 28.1878 103.98 26.6827 103.98 23.9435C103.98 21.2044 102.112 19.699 100.069 19.699C98.0253 19.699 96.2443 21.2042 96.2443 23.9435Z"
                fill="#81838C" />
            <path
                d="M131.844 31.7401H128.166V22.4989C128.166 20.7531 127.494 19.6994 125.888 19.6994C124.254 19.6994 123.086 20.9638 123.086 23.432V31.7401H119.408V22.5591C119.408 20.7531 118.678 19.6994 117.072 19.6994C115.642 19.6994 114.328 20.9638 114.328 23.3718V31.7401H110.65V16.8098H114.328V18.7964C114.77 18.0575 115.389 17.4481 116.125 17.0264C116.861 16.6049 117.69 16.3853 118.532 16.3884C120.663 16.3884 121.948 17.3516 122.561 18.9471C123.05 18.1466 123.732 17.4903 124.541 17.042C125.349 16.5937 126.256 16.3686 127.173 16.3884C130.181 16.3884 131.844 18.345 131.844 21.2949V31.7401Z"
                fill="#81838C" />
            <path
                d="M144.154 31.7395C143.668 31.0503 143.422 30.2128 143.454 29.3616C142.432 31.2278 140.68 32.1609 138.607 32.1609C135.746 32.1609 133.732 30.3247 133.732 27.4951C133.732 24.4549 136.155 22.98 138.899 22.5584L143.249 21.8663V21.2942C143.249 19.8495 142.373 19.0367 140.592 19.0367C138.899 19.0367 137.994 19.7891 137.994 20.7222C137.989 20.8455 138.008 20.9685 138.053 21.0836L134.754 22.2271C134.58 21.8298 134.49 21.3989 134.49 20.9631C134.49 18.6452 136.71 16.3877 140.592 16.3877C144.65 16.3877 146.928 18.1636 146.928 21.8059V28.0367C146.928 29.7524 147.19 30.6859 147.89 31.7394L144.154 31.7395ZM143.249 24.7559V24.485L139.745 25.0871C138.169 25.3581 137.322 26.0805 137.322 27.2846C137.322 28.4888 138.198 29.0908 139.483 29.0908C141.614 29.0905 143.249 27.6458 143.249 24.7559Z"
                fill="#81838C" />
        </g>
    </g>
    <defs>
        <clipPath id="clip0_3664_18836">
            <rect width="147" height="48" fill="white" transform="translate(0.890625)" />
        </clipPath>
    </defs>
</svg>