<svg width="57" height="77" viewBox="0 0 57 77" fill="none" xmlns="http://www.w3.org/2000/svg">
    <path fill-rule="evenodd" clip-rule="evenodd"
        d="M10.1818 71.8026V71.7628C10.1818 69.3515 8.35293 67.4305 6.00713 67.4305C3.6012 67.4305 1.87063 69.3717 1.87063 71.7252V71.7628C1.87063 74.1757 3.7002 76.0966 6.04526 76.0966C8.45192 76.0966 10.1818 74.1561 10.1818 71.8026ZM0.816895 71.8026V71.7628C0.816895 68.9602 3.0241 66.5293 6.04526 66.5293C9.04956 66.5293 11.2355 68.9211 11.2355 71.7252V71.7628C11.2355 74.5669 9.02829 77 6.00713 77C3.0043 77 0.816895 74.6067 0.816895 71.8026ZM13.5146 71.8026V71.7628C13.5146 68.9602 15.7751 66.5293 18.6697 66.5293C20.5726 66.5293 21.7625 67.3907 22.7147 68.3722L22.0206 69.0759C21.1482 68.1957 20.1557 67.4305 18.6492 67.4305C16.3499 67.4305 14.5655 69.3319 14.5655 71.7252V71.7628C14.5655 74.1757 16.4092 76.0966 18.7289 76.0966C20.1557 76.0966 21.2659 75.3727 22.1194 74.4302L22.7936 75.019C21.7625 76.1748 20.5324 77 18.6697 77C15.7546 77 13.5146 74.6067 13.5146 71.8026ZM32.975 71.2927C32.836 69.2741 31.6663 67.4102 29.3459 67.4102C27.3415 67.4102 25.7957 69.0766 25.6165 71.2927H32.975ZM24.5843 71.7845V71.7433C24.5843 68.8416 26.6487 66.5293 29.3846 66.5293C32.2215 66.5293 34.0262 68.8032 34.0262 71.7628C34.0262 71.94 34.0262 71.9993 34.0064 72.1556H25.6165C25.7957 74.6465 27.599 76.0974 29.5843 76.0974C31.1491 76.0974 32.2215 75.4117 33.0533 74.5293L33.7277 75.1181C32.6963 76.216 31.4878 77 29.5441 77C26.8865 77 24.5843 74.9011 24.5843 71.7845ZM43.8301 72.99V71.8422C42.9716 71.6258 41.8338 71.3897 40.3754 71.3897C38.217 71.3897 37.018 72.337 37.018 73.7398V73.7791C37.018 75.2409 38.4159 76.0906 39.976 76.0906C42.0534 76.0906 43.8301 74.827 43.8301 72.99ZM35.9797 73.8374V73.7988C35.9797 71.7038 37.7969 70.5189 40.4358 70.5189C41.8529 70.5189 42.8323 70.6975 43.8116 70.9554V70.5189C43.8116 68.4829 42.5515 67.4373 40.455 67.4373C39.2148 67.4373 38.1971 67.7739 37.2582 68.2483L36.8979 67.3972C38.0173 66.8849 39.1167 66.5293 40.5154 66.5293C41.8927 66.5293 42.9915 66.9038 43.7313 67.6355C44.4108 68.3073 44.7704 69.2357 44.7704 70.4803V76.7624H43.8116V75.0828C43.1123 76.0505 41.8529 77 39.9156 77C38.0173 77 35.9797 75.9332 35.9797 73.8374ZM48.189 66.7654H49.1582V68.6415C49.8273 67.4553 50.9531 66.5293 52.7895 66.5293C55.3351 66.5293 56.8169 68.267 56.8169 70.6772V76.8389H55.8499V70.855C55.8499 68.7806 54.6849 67.4167 52.6518 67.4167C50.6771 67.4167 49.1582 68.9191 49.1582 71.0116V76.8389H48.189V66.7654ZM7.97968 26.9815C7.97968 28.6273 6.63238 29.9623 4.96806 29.9623C3.30519 29.9623 1.95643 28.6273 1.95643 26.9815C1.95643 25.3357 3.30519 24.0021 4.96806 24.0021C6.63238 24.0021 7.97968 25.3357 7.97968 26.9815ZM55.8401 26.9815C55.8401 28.6273 54.4914 29.9623 52.8292 29.9623C51.1657 29.9623 49.8169 28.6273 49.8169 26.9815C49.8169 25.3357 51.1657 24.0021 52.8292 24.0021C54.4914 24.0021 55.8401 25.3357 55.8401 26.9815ZM31.9099 38.7413C31.9099 40.3869 30.5613 41.7218 28.8987 41.7218C27.2353 41.7218 25.8867 40.3869 25.8867 38.7413C25.8867 37.0957 27.2353 35.7615 28.8987 35.7615C30.5613 35.7615 31.9099 37.0957 31.9099 38.7413ZM19.8634 32.9425C19.8634 34.5875 18.5155 35.9226 16.8514 35.9226C15.188 35.9226 13.8401 34.5875 13.8401 32.9425C13.8401 31.296 15.188 29.9623 16.8514 29.9623C18.5155 29.9623 19.8634 31.296 19.8634 32.9425ZM43.7936 32.9425C43.7936 34.5875 42.445 35.9226 40.7824 35.9226C39.1183 35.9226 37.7704 34.5875 37.7704 32.9425C37.7704 31.296 39.1183 29.9623 40.7824 29.9623C42.445 29.9623 43.7936 31.296 43.7936 32.9425ZM7.00294 36.0039C7.00294 37.114 6.09268 38.0167 4.96916 38.0167C3.84416 38.0167 2.93317 37.114 2.93317 36.0039C2.93317 34.8908 3.84416 33.9895 4.96916 33.9895C6.09268 33.9895 7.00294 34.8908 7.00294 36.0039ZM54.8634 36.0039C54.8634 37.114 53.9518 38.0167 52.8285 38.0167C51.7045 38.0167 50.7936 37.114 50.7936 36.0039C50.7936 34.8908 51.7045 33.9895 52.8285 33.9895C53.9518 33.9895 54.8634 34.8908 54.8634 36.0039ZM30.9332 47.9222C30.9332 49.0345 30.0212 49.9372 28.899 49.9372C27.7761 49.9372 26.8634 49.0345 26.8634 47.9222C26.8634 46.8106 27.7761 45.91 28.899 45.91C30.0212 45.91 30.9332 46.8106 30.9332 47.9222ZM18.8867 41.9641C18.8867 43.0761 17.9758 43.977 16.8525 43.977C15.7285 43.977 14.8169 43.0761 14.8169 41.9641C14.8169 40.8514 15.7285 39.9498 16.8525 39.9498C17.9758 39.9498 18.8867 40.8514 18.8867 41.9641ZM42.8169 41.9641C42.8169 43.0761 41.9048 43.977 40.7831 43.977C39.6585 43.977 38.7471 43.0761 38.7471 41.9641C38.7471 40.8514 39.6585 39.9498 40.7831 39.9498C41.9048 39.9498 42.8169 40.8514 42.8169 41.9641ZM6.0262 43.0899C6.0262 43.6693 5.55275 44.1381 4.96843 44.1381C4.38336 44.1381 3.90992 43.6693 3.90992 43.0899C3.90992 42.512 4.38336 42.0439 4.96843 42.0439C5.55275 42.0439 6.0262 42.512 6.0262 43.0899ZM53.8867 43.0899C53.8867 43.6693 53.4121 44.1381 52.8289 44.1381C52.2434 44.1381 51.7704 43.6693 51.7704 43.0899C51.7704 42.512 52.2434 42.0439 52.8289 42.0439C53.4121 42.0439 53.8867 42.512 53.8867 43.0899ZM29.9564 55.0108C29.9564 55.5892 29.4819 56.0586 28.8987 56.0586C28.3139 56.0586 27.8401 55.5892 27.8401 55.0108C27.8401 54.4324 28.3139 53.9644 28.8987 53.9644C29.4819 53.9644 29.9564 54.4324 29.9564 55.0108ZM17.9099 49.0513C17.9099 49.6289 17.4357 50.0983 16.8514 50.0983C16.2678 50.0983 15.7936 49.6289 15.7936 49.0513C15.7936 48.4721 16.2678 48.0042 16.8514 48.0042C17.4357 48.0042 17.9099 48.4721 17.9099 49.0513ZM41.8401 49.0513C41.8401 49.6289 41.3656 50.0983 40.7824 50.0983C40.1962 50.0983 39.7239 49.6289 39.7239 49.0513C39.7239 48.4721 40.1962 48.0042 40.7824 48.0042C41.3656 48.0042 41.8401 48.4721 41.8401 49.0513ZM32.8867 4.02727C32.8867 6.2519 31.0643 8.05439 28.818 8.05439C26.5695 8.05439 24.7471 6.2519 24.7471 4.02727C24.7471 1.80321 26.5695 0 28.818 0C31.0643 0 32.8867 1.80321 32.8867 4.02727ZM32.8867 15.9477C32.8867 18.172 31.0643 19.9749 28.818 19.9749C26.5695 19.9749 24.7471 18.172 24.7471 15.9477C24.7471 13.7241 26.5695 11.9205 28.818 11.9205C31.0643 11.9205 32.8867 13.7241 32.8867 15.9477ZM32.8867 27.7078C32.8867 29.9311 31.0643 31.7343 28.818 31.7343C26.5695 31.7343 24.7471 29.9311 24.7471 27.7078C24.7471 25.4831 26.5695 23.6799 28.818 23.6799C31.0643 23.6799 32.8867 25.4831 32.8867 27.7078ZM56.8169 15.9477C56.8169 18.172 54.9948 19.9749 52.7475 19.9749C50.4994 19.9749 48.6774 18.172 48.6774 15.9477C48.6774 13.7241 50.4994 11.9205 52.7475 11.9205C54.9948 11.9205 56.8169 13.7241 56.8169 15.9477ZM8.95643 15.9477C8.95643 18.172 7.13476 19.9749 4.88703 19.9749C2.6393 19.9749 0.816895 18.172 0.816895 15.9477C0.816895 13.7241 2.6393 11.9205 4.88703 11.9205C7.13476 11.9205 8.95643 13.7241 8.95643 15.9477ZM21.0029 9.98745C21.0029 12.2115 19.1811 14.0146 16.9332 14.0146C14.6852 14.0146 12.8634 12.2115 12.8634 9.98745C12.8634 7.76199 14.6852 5.96025 16.9332 5.96025C19.1811 5.96025 21.0029 7.76199 21.0029 9.98745ZM21.0029 21.7465C21.0029 23.9707 19.1811 25.7741 16.9332 25.7741C14.6852 25.7741 12.8634 23.9707 12.8634 21.7465C12.8634 19.523 14.6852 17.7197 16.9332 17.7197C19.1811 17.7197 21.0029 19.523 21.0029 21.7465ZM44.9332 9.98745C44.9332 12.2115 43.1108 14.0146 40.863 14.0146C38.6153 14.0146 36.7936 12.2115 36.7936 9.98745C36.7936 7.76199 38.6153 5.96025 40.863 5.96025C43.1108 5.96025 44.9332 7.76199 44.9332 9.98745ZM44.9332 21.7465C44.9332 23.9707 43.1108 25.7741 40.863 25.7741C38.6153 25.7741 36.7936 23.9707 36.7936 21.7465C36.7936 19.523 38.6153 17.7197 40.863 17.7197C43.1108 17.7197 44.9332 19.523 44.9332 21.7465Z"
        fill="#81838C" />
</svg>