<svg width="187" height="41" viewBox="0 0 187 41" fill="none" xmlns="http://www.w3.org/2000/svg">
    <path
        d="M58.6375 38.2062V12.5794H62.4503L62.8135 14.648H62.995C64.0844 13.2311 65.9358 12.2163 68.5134 12.2163C73.2308 12.2163 77.0081 16.0649 77.0081 21.7615C77.0081 27.4581 73.2341 31.3067 68.5134 31.3067C65.9714 31.3067 64.1947 30.253 63.2512 29.0566H63.0696V38.203H58.6407L58.6375 38.2062ZM72.5759 21.7647C72.5759 18.4252 70.4328 16.321 67.8195 16.321C65.2063 16.321 63.0631 18.4252 63.0631 21.7647C63.0631 25.1043 65.2063 27.2085 67.8195 27.2085C70.4328 27.2085 72.5759 25.1043 72.5759 21.7647Z"
        fill="#81838C" />
    <path
        d="M79.2551 21.7649C79.2551 16.2109 83.2463 12.2197 88.5831 12.2197C93.9198 12.2197 97.9111 16.2109 97.9111 21.7649C97.9111 27.3189 93.9198 31.3101 88.5831 31.3101C83.2463 31.3101 79.2551 27.28 79.2551 21.7649ZM93.4465 21.7649C93.4465 18.4967 91.2677 16.3212 88.5831 16.3212C85.8985 16.3212 83.684 18.5 83.684 21.7649C83.684 25.0299 85.8985 27.173 88.5831 27.173C91.2677 27.173 93.4465 25.0331 93.4465 21.7649Z"
        fill="#81838C" />
    <path d="M101.121 30.9471V5.5376H105.55V30.9471H101.121Z" fill="#81838C" />
    <path
        d="M121.991 12.5796H126.709L118.723 34.9025C117.925 37.117 116.836 38.2064 113.967 38.2064H109.684V34.1049H113.315C113.97 34.1049 114.33 33.7774 114.55 33.2327L114.985 32.0364L107.508 12.5796H112.226L116.982 25.3216H117.708L121.991 12.5796Z"
        fill="#81838C" />
    <path
        d="M127.555 31.8546H132.055C132.237 33.051 133.433 34.6851 136.267 34.6851C138.916 34.6851 140.66 33.0154 140.66 30.4734V27.8959H140.479C139.499 28.9496 137.684 29.8931 135.359 29.8931C130.642 29.8931 127.01 26.2618 127.01 21.0352C127.01 15.8087 130.642 12.2163 135.359 12.2163C137.791 12.2163 139.571 13.1955 140.696 14.5767H140.877L141.241 12.5794H145.089V30.4734C145.089 35.3368 141.821 38.5693 136.267 38.5693C130.061 38.5693 127.665 34.5036 127.555 31.8546ZM140.66 21.0385C140.66 18.1723 138.627 16.1751 136.05 16.1751C133.472 16.1751 131.475 18.1723 131.475 21.0385C131.475 23.9046 133.508 25.9375 136.05 25.9375C138.592 25.9375 140.66 23.9403 140.66 21.0385Z"
        fill="#81838C" />
    <path
        d="M148.166 21.7649C148.166 16.2109 152.157 12.2197 157.494 12.2197C162.831 12.2197 166.822 16.2109 166.822 21.7649C166.822 27.3189 162.831 31.3101 157.494 31.3101C152.157 31.3101 148.166 27.28 148.166 21.7649ZM162.357 21.7649C162.357 18.4967 160.179 16.3212 157.494 16.3212C154.809 16.3212 152.595 18.5 152.595 21.7649C152.595 25.0299 154.809 27.173 157.494 27.173C160.179 27.173 162.357 25.0331 162.357 21.7649Z"
        fill="#81838C" />
    <path
        d="M169.905 30.9468V12.5794H173.715L174.078 14.3205H174.26C174.986 13.4873 176.802 12.2163 179.558 12.2163C183.769 12.2163 186.817 15.264 186.817 19.9102V30.9436H182.388V20.4905C182.388 18.1302 180.718 16.4248 178.432 16.4248C176.147 16.4248 174.331 18.2048 174.331 20.4905V30.9436H169.902L169.905 30.9468Z"
        fill="#81838C" />
    <path
        d="M34.8069 28.8038L45.6944 22.5171C46.2715 22.1831 46.6281 21.5639 46.6281 20.8992V8.32574C46.6281 7.66108 46.2715 7.04181 45.6944 6.70786L34.8069 0.421125C34.2297 0.0871726 33.5132 0.0904148 32.9393 0.421125L22.0518 6.70786C21.4747 7.04181 21.1181 7.66108 21.1181 8.32574V30.7946L13.4826 35.2008L5.84706 30.7946V21.9789L13.4826 17.5726L18.5178 20.481V14.5671L14.4163 12.197C14.1343 12.0349 13.81 11.9473 13.4826 11.9473C13.1551 11.9473 12.8309 12.0349 12.5488 12.197L1.66131 18.4837C1.08419 18.8177 0.727539 19.4369 0.727539 20.1016V32.6751C0.727539 33.3397 1.08419 33.959 1.66131 34.293L12.5488 40.5797C13.1259 40.9104 13.8392 40.9104 14.4163 40.5797L25.3038 34.293C25.8809 33.959 26.2376 33.3397 26.2376 32.6751V10.203L26.3738 10.1252L33.8699 5.79678L41.5054 10.203V19.0187L33.8699 23.4249L28.8411 20.5231V26.437L32.9361 28.8006C33.5132 29.1313 34.2297 29.1313 34.8036 28.8006L34.8069 28.8038Z"
        fill="#81838C" />
</svg>