<svg width="175" height="43" viewBox="0 0 175 43" fill="none" xmlns="http://www.w3.org/2000/svg">
    <path
        d="M7.26059 19.176L6.64841 30.7179C6.64841 36.3727 8.48496 37.6121 11.6989 37.6121C13.9946 37.767 16.3668 36.76 17.5147 35.3657V15.3028C17.5147 13.986 17.6677 13.1339 18.2799 12.3592C19.0451 11.7395 19.8104 11.817 23.4069 11.7395C23.3304 15.1479 23.2539 19.176 23.2539 24.0561V34.746C23.2539 36.76 23.56 38.2318 24.0191 39.4712C24.1722 39.936 21.3408 41.0205 20.8817 41.0205C19.6573 41.0205 19.1216 40.1684 18.8156 39.1614C16.3668 41.098 13.2294 42.3374 10.1685 42.3374C2.51617 42.0275 0.985713 38.3093 0.832667 31.6475L1.52137 18.4788C1.52137 16.1549 1.13876 14.4507 0.603098 12.9015C0.526575 12.7466 1.82747 12.0494 1.98051 11.9719C2.89879 11.5071 3.89358 10.81 4.9649 11.1973C7.33712 11.8945 7.41364 17.1619 7.26059 19.176Z"
        fill="#71747E" />
    <path
        d="M36.7984 18.4017V38.0773C36.7984 39.3941 36.6453 40.2462 36.0332 41.0209C35.2679 41.6406 34.5027 41.5631 30.9061 41.6406C30.9827 38.2322 31.0592 34.2041 31.0592 29.324V18.7116C31.0592 16.6975 30.7531 15.2257 30.2939 13.9863C30.6 13.6765 31.0592 13.4441 31.4418 13.2117C32.2835 12.8244 33.1253 12.2047 34.0436 12.5145C34.8088 12.7469 35.2679 13.5215 35.421 14.2962C38.788 11.585 43.2263 10.578 47.4351 11.4301C50.1899 12.0498 52.1795 13.8314 52.9447 16.6201C53.4039 18.4792 53.4804 20.3383 53.4804 22.2749V31.9577C53.4804 35.4435 53.5569 38.4646 53.6334 40.9434C52.9447 41.4856 51.9499 41.718 48.2003 41.718C47.8177 41.0209 47.6646 40.1688 47.6646 39.1617V22.4298C47.6646 17.5496 46.4403 15.768 42.4611 15.768C40.0889 15.768 38.1758 17.0074 36.7984 18.4017Z"
        fill="#71747E" />
    <path
        d="M64.1936 0.584961C66.8719 0.584961 67.3311 1.7469 67.2546 3.99333C67.178 6.23975 66.4893 7.78901 63.811 7.78901C61.5153 7.78901 60.6736 6.62706 60.6736 4.14825C60.7501 1.7469 61.8214 0.584961 64.1936 0.584961ZM66.8719 16.2325V37.6897C66.8719 39.1615 66.6424 40.1685 66.1067 41.0206C65.6476 41.6403 64.6528 41.6403 60.9797 41.7177C60.9797 38.4643 60.9797 14.9156 60.9032 13.2889C61.5919 11.972 63.5815 11.7396 66.3363 11.7396C66.7954 12.5917 66.8719 13.5987 66.8719 16.2325Z"
        fill="#71747E" />
    <path
        d="M74.5241 28.6264C74.5241 28.6264 74.8302 6.47206 74.3711 2.83131C75.1363 1.43698 76.8964 1.20459 79.6512 1.20459C80.0338 1.90176 80.1868 2.75385 80.1868 5.38758V14.5282C82.4825 12.4367 85.5434 11.1973 88.6809 11.1973C95.1088 11.1973 96.9454 14.6831 96.9454 23.0491V32.3447C96.9454 35.8305 96.9454 38.6966 97.0219 41.0205C96.3332 41.6402 95.5679 41.7951 91.5888 41.7951C91.2827 41.0205 91.1296 40.0909 91.1296 38.929C91.1296 34.5136 91.1296 30.1757 91.1296 25.7603C91.1296 23.4364 91.2827 20.9576 90.6705 18.7112C90.2879 17.3169 89.3696 16.3098 87.9922 16C87.533 15.9225 87.1504 15.8451 86.6913 15.8451C84.013 15.8451 81.7173 17.2394 80.1868 18.7112V37.7671C80.1868 39.0839 80.0338 40.1684 79.4981 41.0205C78.6564 41.6402 77.8146 41.6402 74.3711 41.6402C74.4476 38.0769 74.5241 33.739 74.5241 28.6264Z"
        fill="#71747E" />
    <path
        d="M115.694 42.4151C107.506 42.4151 102.914 37.8448 102.914 26.9225C102.914 16.0777 108.271 11.1201 115.847 11.1201C124.188 11.1201 128.396 16.3876 128.396 26.5352C128.473 37.0702 123.04 42.4151 115.694 42.4151ZM115.847 38.3096C119.367 38.3096 122.428 35.4435 122.428 26.6901C122.428 23.5142 122.198 19.5636 119.979 17.0848C117.989 14.9158 114.24 14.7609 112.097 16.7749C109.189 19.4086 109.036 23.9015 109.113 27.6197C109.189 30.7182 109.572 34.6688 111.944 36.9152C113.015 37.8448 114.393 38.3096 115.847 38.3096Z"
        fill="#71747E" />
    <path
        d="M151.047 13.7539C151.047 14.6059 150.588 15.9228 150.052 16.62C149.44 16.8524 148.675 16.6974 146.991 16.0003C145.997 15.613 144.925 15.458 143.777 15.458C141.099 15.458 139.263 16.7749 139.263 18.7115C139.263 19.796 139.798 20.7255 141.405 21.9649C143.089 23.2043 146.073 25.1409 148.063 26.6901C150.894 28.8591 151.965 30.9506 151.965 33.5843C151.965 39.4715 146.991 42.4151 140.946 42.4151C136.814 42.4151 133.37 41.2532 132.682 39.7039C132.682 38.6969 133.064 37.38 133.753 36.5279C134.059 36.2181 135.59 36.9152 135.819 37.0702C137.809 37.9997 139.951 38.1546 142.094 37.9223C144.466 37.6899 145.92 36.2181 145.92 34.1266C145.92 32.6548 145.155 31.4154 143.089 30.0211C140.717 28.3943 138.344 26.6901 136.125 24.831C134.136 22.9719 133.217 21.0354 133.217 18.8664C133.217 13.9862 137.35 11.1201 143.242 11.1201C147.604 11.1201 150.741 12.9792 151.047 13.7539Z"
        fill="#71747E" />
    <path
        d="M173.698 39.9364C173.545 40.4786 173.239 40.7885 172.703 41.1758C171.479 41.9504 169.183 42.3377 167.117 42.3377C160.995 42.3377 159.847 36.8379 159.847 31.7253V16.2327C157.705 16.2327 156.71 16.0004 155.868 15.613C155.868 13.6765 155.945 13.9089 156.48 13.3666C157.399 12.592 159.465 12.4371 160.46 11.9723L160.766 6.3175C161.225 5.0781 162.602 3.99362 165.74 3.76123C165.663 6.62736 165.587 9.33856 165.587 11.8948H174.081C173.851 15.0708 173.468 15.768 172.55 15.9229C172.015 16.0004 168.418 16.0778 165.51 16.0778C165.434 18.9439 165.434 29.8662 165.434 31.9577C165.663 35.521 166.275 37.9223 168.954 37.9223C169.948 37.9998 173.009 37.0703 173.545 36.6829C173.698 37.1477 173.775 39.3941 173.698 39.9364Z"
        fill="#71747E" />
</svg>