<svg width="195" height="42" viewBox="0 0 195 42" fill="none" xmlns="http://www.w3.org/2000/svg">
    <path
        d="M84.821 26.0478H79.6601C78.9827 26.0478 78.4988 26.0801 78.273 26.1446C77.6279 26.3381 77.3054 26.7897 77.3054 27.5639C77.3054 28.5315 78.0795 29.0154 79.6601 29.0154H84.821C84.821 29.0476 84.821 26.0478 84.821 26.0478ZM79.3698 22.5319H84.821C84.821 21.3707 84.5952 20.5965 84.1114 20.1772C83.6598 19.7579 82.7566 19.5643 81.4341 19.5643H73.9185V16.0484H81.4341C83.4985 16.0484 84.9501 16.1774 85.7887 16.4677C87.3048 16.9516 88.337 18.1128 88.9176 19.9191C89.1756 20.6933 89.2724 21.79 89.2724 23.2738V32.5636H79.9181C78.4666 32.5636 77.5957 32.5636 77.2731 32.5313C76.2087 32.4023 75.37 32.1442 74.7894 31.7572C73.4669 30.854 72.7895 29.4992 72.7895 27.6929C72.7895 26.5639 73.0475 25.564 73.5636 24.7253C74.0797 23.8544 74.7894 23.2738 75.628 22.9512C76.3699 22.6609 77.5957 22.5319 79.3698 22.5319ZM55.8873 29.0476V16.0807H60.4354V29.0476H65.3061V16.0807H69.8542V32.5958H53.1778C50.4682 32.5958 48.6619 32.0797 47.7265 31.0798C46.7265 29.9831 46.2427 28.4993 46.2427 26.5962V16.0807H50.7908V25.8865C50.7908 27.1445 50.9843 28.0154 51.4037 28.4348C51.823 28.8541 52.5004 29.0799 53.5003 29.0799C53.4681 29.0476 55.8873 29.0476 55.8873 29.0476ZM94.4334 16.0807H103.11C104.272 16.0807 105.142 16.1452 105.691 16.2419C106.529 16.4032 107.304 16.8226 107.949 17.4032C109.078 18.4676 109.658 20.1449 109.658 22.4029V32.5636H105.175V21.8868C105.175 20.3385 104.401 19.5966 102.852 19.5966H98.9492V32.5636H94.4334V16.0807ZM127.754 16.0807V19.5966H122.206C120.464 19.5966 119.206 19.9837 118.432 20.7255C117.658 21.4674 117.271 22.6609 117.271 24.306C117.271 26.3059 117.98 27.6929 119.432 28.467C120.109 28.8541 121.206 29.0476 122.722 29.0476H127.754V32.5636H121.432C119.754 32.5636 118.4 32.4023 117.4 32.0475C116.4 31.7249 115.497 31.112 114.755 30.2734C113.303 28.6928 112.561 26.6929 112.561 24.2415C112.561 21.3062 113.432 19.1127 115.174 17.6612C116.464 16.5645 118.561 16.0484 121.432 16.0484L127.754 16.0807ZM134.883 9.59717V15.6291H139.495C141.979 15.6291 143.689 16.1129 144.721 17.1128C145.721 18.0805 146.237 19.6611 146.237 21.7577V31.9507H141.721V22.6609C141.721 21.2094 141.527 20.2417 141.108 19.7901C140.689 19.3385 139.818 19.1127 138.528 19.1127H134.883V31.9184H130.367V9.59717H134.883ZM161.849 26.0478H156.688C156.01 26.0478 155.527 26.0801 155.301 26.1446C154.656 26.3381 154.333 26.7897 154.333 27.5639C154.333 28.5315 155.107 29.0154 156.688 29.0154H161.849V26.0478ZM156.397 22.5319H161.849C161.849 21.3707 161.623 20.5965 161.139 20.1772C160.688 19.7579 159.784 19.5643 158.462 19.5643H150.946V16.0484H158.462C160.526 16.0484 161.978 16.1774 162.816 16.4677C164.332 16.9516 165.365 18.1128 165.945 19.9191C166.203 20.6933 166.3 21.79 166.3 23.2738V32.5636H156.946C155.494 32.5636 154.623 32.5636 154.301 32.5313C153.236 32.4023 152.398 32.1442 151.817 31.7572C150.495 30.854 149.817 29.4992 149.817 27.6929C149.817 26.5639 150.075 25.564 150.591 24.7253C151.107 23.8544 151.817 23.2738 152.656 22.9512C153.398 22.6609 154.623 22.5319 156.397 22.5319ZM170.816 31.9184H175.009V15.6291H170.816V31.9184ZM170.816 13.9517H175.009V9.59717H170.816V13.9517ZM179.235 16.0807H187.879C189.041 16.0807 189.912 16.1452 190.46 16.2419C191.299 16.4032 192.073 16.8226 192.718 17.4032C193.847 18.4676 194.427 20.1449 194.427 22.4029V32.5636H189.912V21.8868C189.912 20.3385 189.137 19.5966 187.589 19.5966H183.686V32.5636H179.203L179.235 16.0807Z"
        fill="#81838C" />
    <path
        d="M18.9218 18.6614L0.890625 29.2737V35.1121L18.9218 24.4998L36.953 35.1121V29.2737L18.9218 18.6614ZM6.2774 12.3392L19.0831 4.92031L31.8888 12.3392L36.6627 10.4039L19.0508 0.243164L1.43898 10.4039L6.2774 12.3392Z"
        fill="#81838C" />
    <path
        d="M31.8888 13.3067V29.6283L30.0502 30.725L33.9532 33.0797L36.9852 31.2734V11.1455L31.8888 13.3067ZM7.82567 30.725L5.98707 29.6283V13.3067L0.922852 11.1778V31.3056L3.95493 33.112L7.82567 30.725ZM28.8889 31.6604L19.0831 37.1762L9.2772 31.6604L5.21292 33.9829L19.0508 41.7566L32.8887 33.9829L28.8889 31.6604Z"
        fill="#81838C" />
</svg>