<svg width="129" height="57" viewBox="0 0 129 57" fill="none" xmlns="http://www.w3.org/2000/svg">
    <g clip-path="url(#clip0_3664_19066)">
        <path
            d="M122.775 20.3168C123.625 20.3183 124.465 20.1352 125.235 19.7804C126.006 19.4257 126.69 18.9078 127.237 18.2632C127.785 17.6186 128.184 16.8628 128.407 16.0488C128.629 15.2349 128.67 14.3824 128.525 13.5513C128.381 12.7202 128.055 11.9306 127.57 11.2378C127.086 10.545 126.454 9.96577 125.72 9.54079C124.987 9.11581 124.168 8.85535 123.322 8.77768C122.476 8.7 121.623 8.80699 120.823 9.09115L116.904 5.20938C116.933 5.01641 116.949 4.82166 116.951 4.62653C116.951 3.80922 116.706 3.01027 116.249 2.3307C115.792 1.65113 115.141 1.12147 114.381 0.808702C113.62 0.495931 112.783 0.414096 111.975 0.573545C111.168 0.732994 110.426 1.12657 109.844 1.70449C109.262 2.28242 108.865 3.01874 108.705 3.82034C108.544 4.62195 108.626 5.45283 108.941 6.20793C109.256 6.96302 109.79 7.60842 110.475 8.06249C111.159 8.51656 111.964 8.75892 112.788 8.75892C112.984 8.75691 113.18 8.74133 113.375 8.71229L117.294 12.6028C116.84 13.8555 116.84 15.2261 117.294 16.4787L104.57 29.109C103.558 28.6835 102.455 28.5135 101.36 28.6141C100.265 28.7147 99.2129 29.0828 98.2964 29.6855C97.3799 30.2883 96.628 31.1069 96.1078 32.0683C95.5877 33.0298 95.3154 34.1041 95.3154 35.1954C95.3154 36.2868 95.5877 37.3611 96.1078 38.3225C96.628 39.284 97.3799 40.1026 98.2964 40.7054C99.2129 41.3081 100.265 41.6762 101.36 41.7768C102.455 41.8774 103.558 41.7073 104.57 41.2818L113.63 50.2635C113.341 51.3217 113.411 52.4452 113.832 53.4593C114.252 54.4734 114.998 55.3213 115.953 55.8711C116.909 56.421 118.021 56.642 119.116 56.4998C120.212 56.3575 121.229 55.8601 122.01 55.0847C122.791 54.3094 123.292 53.2996 123.436 52.2123C123.579 51.1251 123.356 50.0213 122.802 49.0726C122.248 48.1239 121.394 47.3835 120.373 46.9664C119.351 46.5494 118.219 46.4791 117.153 46.7664L108.102 37.7847C108.451 36.9684 108.63 36.0908 108.63 35.2042C108.63 34.3175 108.451 33.4399 108.102 32.6236L120.823 19.9875C121.45 20.2075 122.11 20.3188 122.775 20.3168Z"
            fill="#81838C" />
        <path
            d="M101.969 50.0656C99.0076 50.0656 96.1127 49.1939 93.6505 47.5608C91.1882 45.9276 89.2691 43.6064 88.1358 40.8906C87.0026 38.1748 86.7061 35.1865 87.2838 32.3034C87.8615 29.4203 89.2876 26.7721 91.3815 24.6935C93.4755 22.6149 96.1434 21.1994 99.0479 20.6259C101.952 20.0524 104.963 20.3468 107.699 21.4717C110.435 22.5966 112.773 24.5016 114.418 26.9457C116.064 29.3899 116.942 32.2634 116.942 35.203C116.936 39.1429 115.356 42.9197 112.549 45.7056C109.743 48.4915 105.938 50.0594 101.969 50.0656ZM101.969 25.2945C99.9947 25.2945 98.0648 25.8757 96.4233 26.9644C94.7818 28.0532 93.5024 29.6006 92.7469 31.4112C91.9914 33.2217 91.7937 35.2139 92.1788 37.136C92.564 39.058 93.5147 40.8235 94.9107 42.2093C96.3067 43.595 98.0853 44.5387 100.022 44.921C101.958 45.3033 103.965 45.1071 105.789 44.3571C107.613 43.6072 109.172 42.3372 110.269 40.7078C111.365 39.0783 111.951 37.1627 111.951 35.203C111.953 32.5722 110.903 30.0482 109.031 28.1858C107.159 26.3235 104.619 25.2751 101.969 25.2712V25.2945Z"
            fill="#81838C" />
        <path
            d="M74.6422 50.1236H0.600098L25.5665 25.3409H0.600098L5.59985 20.3838H37.6211L12.6547 45.1665H69.6483L74.6422 50.1236Z"
            fill="#81838C" />
        <path
            d="M81.7058 50.1236L64.2287 32.7751H76.4976C76.9982 32.7891 77.4965 32.7032 77.9631 32.5227C78.4297 32.3421 78.8551 32.0705 79.2141 31.724C79.5731 31.3775 79.8585 30.963 80.0534 30.5051C80.2482 30.0472 80.3486 29.5551 80.3486 29.058C80.3486 28.5609 80.2482 28.0689 80.0534 27.611C79.8585 27.1531 79.5731 26.7386 79.2141 26.3921C78.8551 26.0455 78.4297 25.774 77.9631 25.5934C77.4965 25.4129 76.9982 25.327 76.4976 25.3409H39.6909L44.6819 20.3867H76.4976C78.7875 20.4284 80.9694 21.3606 82.574 22.9828C84.1785 24.605 85.0775 26.7876 85.0775 29.0609C85.0775 31.3343 84.1785 33.5169 82.574 35.1391C80.9694 36.7613 78.7875 37.6935 76.4976 37.7352H76.2833L88.7665 50.1265L81.7058 50.1236Z"
            fill="#81838C" />
        <path d="M62.1588 37.7325H27.2075L32.1985 32.7754H57.1649L62.1588 37.7325Z" fill="#81838C" />
    </g>
    <defs>
        <clipPath id="clip0_3664_19066">
            <rect width="128" height="56" fill="white" transform="translate(0.600098 0.5)" />
        </clipPath>
    </defs>
</svg>