<svg width="31" height="30" viewBox="0 0 31 30" fill="none" xmlns="http://www.w3.org/2000/svg">
    <path
        d="M23.0777 2.07747L22.1558 15.4579L7.82857 27.9412L8.75049 14.5359L23.0528 2.07747C21.0532 0.884208 18.7985 0.183858 16.4747 0.0342849C12.8061 -0.214107 9.17411 0.893649 6.26858 3.14712C3.36305 5.40059 1.38645 8.64279 0.714248 12.2578C0.0420467 15.8728 0.721081 19.6088 2.62236 22.7561C4.52364 25.9034 7.5147 28.2427 11.0274 29.3296C14.54 30.4166 18.3296 30.1754 21.6761 28.652C25.0227 27.1286 27.6931 24.429 29.1801 21.0661C30.6671 17.7032 30.8671 13.9113 29.7421 10.4106C28.6171 6.90996 26.2455 3.94447 23.0777 2.07747V2.07747Z"
        fill="#90939E" />
</svg>